<svg fill="none" height="37" width="294" xmlns="http://www.w3.org/2000/svg"><path d="M20.757 16.277a3.12 3.12 0 0 0-1.36.314 3.142 3.142 0 0 0-3.045-2.387 3.12 3.12 0 0 0-1.706.507 3.137 3.137 0 0 0-2.698-1.543c-.45 0-.878.097-1.266.268V7.794a3.143 3.143 0 0 0-3.14-3.14 3.143 3.143 0 0 0-3.138 3.14V18.31C1.68 19.992.129 22.448.129 25.116.129 31.67 5.459 37 12.012 37s11.884-5.33 11.884-11.884v-5.7a3.142 3.142 0 0 0-3.139-3.14zm1.265 8.84c0 5.518-4.49 10.01-10.01 10.01-5.519 0-10.01-4.492-10.01-10.01 0-1.672.86-3.26 2.402-4.515v2.83a.937.937 0 0 0 1.873 0V7.794a1.266 1.266 0 0 1 2.531 0v15.638a.937.937 0 0 0 1.874 0v-7.125a1.267 1.267 0 0 1 2.531 0l.001.01v7.115a.937.937 0 0 0 1.874 0v-6.089c0-.698.568-1.265 1.264-1.265.698 0 1.266.568 1.266 1.265v6.089a.937.937 0 0 0 1.874 0v-4.016a1.266 1.266 0 0 1 2.53 0v5.7zM2.322 12.52a.937.937 0 0 0 .74-1.511 5.604 5.604 0 0 1-1.187-3.466 5.676 5.676 0 0 1 5.67-5.67 5.676 5.676 0 0 1 5.67 5.67c0 1-.267 1.984-.769 2.845a.938.938 0 0 0 1.62.945 7.532 7.532 0 0 0 1.022-3.79C15.087 3.383 11.703 0 7.543 0S0 3.384 0 7.543c0 1.687.547 3.282 1.58 4.614a.932.932 0 0 0 .741.363z" fill="#4284fb"/><path d="M45.74 21.13c0-.524-.139-.898-.417-1.121-.273-.224-.658-.335-1.155-.335h-1.962v2.967h1.962c.497 0 .882-.121 1.155-.363.278-.241.417-.624.417-1.148zm2.085-.014c0 1.19-.3 2.03-.902 2.523-.602.492-1.46.738-2.577.738h-2.14V28h-2.092V17.924h4.389c1.012 0 1.818.26 2.42.78.601.519.902 1.323.902 2.412zm6.036 5.38c.834 0 1.495-.307 1.983-.923.492-.615.738-1.49.738-2.625 0-1.13-.246-2.003-.738-2.618-.488-.62-1.149-.93-1.983-.93s-1.499.308-1.996.923c-.497.616-.745 1.49-.745 2.625s.248 2.01.745 2.625c.497.616 1.162.923 1.996.923zm4.827-3.548c0 1.81-.509 3.195-1.525 4.157-.761.783-1.862 1.175-3.302 1.175s-2.54-.392-3.301-1.175c-1.021-.962-1.532-2.348-1.532-4.157 0-1.846.51-3.23 1.532-4.156.76-.784 1.861-1.176 3.301-1.176s2.541.392 3.302 1.176c1.016.925 1.525 2.31 1.525 4.156zm3.718-3.274v2.707h2.386c.474 0 .83-.055 1.066-.164.42-.192.63-.57.63-1.135 0-.61-.204-1.02-.61-1.23-.227-.119-.569-.178-1.025-.178zm2.885-1.75c.706.014 1.249.1 1.627.26.383.16.706.394.97.704.22.255.393.537.52.847.128.31.192.663.192 1.06 0 .478-.121.95-.363 1.415-.241.46-.64.786-1.196.977.465.187.793.454.984.8.196.342.294.866.294 1.573v.676c0 .46.019.773.055.937.055.26.182.451.383.574V28h-2.318a7.266 7.266 0 0 1-.136-.54 4.956 4.956 0 0 1-.09-.868l-.013-.937c-.009-.642-.127-1.07-.355-1.285-.224-.214-.645-.321-1.265-.321h-2.174V28H60.35V17.924h4.942zm12.449 0v1.784h-3.015V28h-2.12v-8.292h-3.028v-1.784h8.162zm2.952 6.268h2.557l-1.258-3.965zm.13-6.268h2.38L86.768 28h-2.283l-.65-2.071h-3.711L79.428 28h-2.201zm7.233 0h2.105v8.265h4.99V28h-7.095zm14.444 6.268h2.557l-1.258-3.965zm.13-6.268h2.379L108.576 28h-2.283l-.649-2.071h-3.712L101.234 28h-2.2zm6.795 5.12c0-1.76.472-3.115 1.415-4.067.82-.83 1.864-1.245 3.131-1.245 1.695 0 2.935.556 3.718 1.668.433.625.666 1.251.698 1.88h-2.106c-.136-.483-.312-.847-.526-1.094-.383-.437-.95-.656-1.702-.656-.766 0-1.37.31-1.812.93-.442.615-.663 1.488-.663 2.618s.233 1.978.697 2.543c.47.56 1.065.84 1.785.84.738 0 1.301-.24 1.688-.724.214-.26.392-.65.533-1.169h2.085c-.182 1.099-.649 1.992-1.401 2.68-.748.688-1.707 1.032-2.878 1.032-1.449 0-2.589-.465-3.418-1.394-.829-.934-1.244-2.215-1.244-3.842zm17.876-5.12v1.784h-3.015V28h-2.119v-8.292h-3.028v-1.784zM130.465 28h-2.092V17.924h2.092zm6.426-1.504c.834 0 1.494-.307 1.982-.923.492-.615.738-1.49.738-2.625 0-1.13-.246-2.003-.738-2.618-.488-.62-1.148-.93-1.982-.93s-1.5.308-1.996.923c-.497.616-.746 1.49-.746 2.625s.249 2.01.746 2.625c.496.616 1.162.923 1.996.923zm4.826-3.548c0 1.81-.508 3.195-1.525 4.157-.761.783-1.861 1.175-3.301 1.175s-2.541-.392-3.302-1.175c-1.021-.962-1.531-2.348-1.531-4.157 0-1.846.51-3.23 1.531-4.156.761-.784 1.862-1.176 3.302-1.176s2.54.392 3.301 1.176c1.017.925 1.525 2.31 1.525 4.156zm1.579-5.024h2.208l4.013 7.034v-7.034h1.962V28h-2.106l-4.115-7.157V28h-1.962zm16.153 1.75v2.707h2.386c.474 0 .829-.055 1.066-.164.42-.192.629-.57.629-1.135 0-.61-.203-1.02-.608-1.23-.228-.119-.57-.178-1.026-.178zm2.885-1.75c.706.014 1.249.1 1.627.26.383.16.706.394.971.704.218.255.392.537.519.847.128.31.192.663.192 1.06 0 .478-.121.95-.363 1.415-.241.46-.64.786-1.196.977.465.187.793.454.984.8.196.342.294.866.294 1.573v.676c0 .46.019.773.055.937.055.26.182.451.383.574V28h-2.318a4.88 4.88 0 0 1-.225-1.408l-.014-.937c-.009-.642-.127-1.07-.355-1.285-.224-.214-.645-.321-1.265-.321h-2.174V28h-2.057V17.924zm12.578 1.784h-5.332v2.14h4.895v1.75h-4.895v2.59h5.578V28h-7.636V17.924h7.39zm6.323 6.788a2.712 2.712 0 0 0 1.169-.26l-1.018-.97 1.087-1.135 1.018.97a4.74 4.74 0 0 0 .335-.86c.1-.37.151-.8.151-1.293 0-1.13-.233-2.003-.698-2.618-.46-.62-1.134-.93-2.023-.93-.834 0-1.499.297-1.996.89-.497.591-.745 1.478-.745 2.658 0 1.381.355 2.37 1.066 2.967.46.387 1.012.581 1.654.581zm4.847-3.698c0 .898-.109 1.65-.328 2.256-.178.579-.44 1.06-.786 1.442l1.162 1.087-1.101 1.148-1.217-1.148a5.14 5.14 0 0 1-.957.472c-.451.15-.991.225-1.62.225-1.312 0-2.397-.392-3.254-1.175-1.039-.944-1.558-2.33-1.558-4.157 0-1.84.533-3.233 1.599-4.177.871-.77 1.953-1.155 3.248-1.155 1.303 0 2.397.408 3.281 1.224 1.021.943 1.531 2.262 1.531 3.958zm1.613-4.874h2.14v6.193c0 .693.082 1.199.246 1.518.255.565.811.847 1.668.847.852 0 1.406-.282 1.661-.847.164-.32.246-.825.246-1.518v-6.193h2.14v6.193c0 1.071-.166 1.905-.499 2.502-.62 1.094-1.803 1.64-3.548 1.64s-2.93-.546-3.555-1.64c-.332-.597-.499-1.43-.499-2.502zM199.74 28h-2.092V17.924h2.092zm4.074-8.326v2.707h2.386c.474 0 .83-.055 1.067-.164.419-.192.629-.57.629-1.135 0-.61-.203-1.02-.609-1.23-.228-.119-.57-.178-1.025-.178zm2.885-1.75c.707.014 1.249.1 1.627.26.383.16.707.394.971.704.219.255.392.537.519.847.128.31.192.663.192 1.06 0 .478-.121.95-.362 1.415-.242.46-.641.786-1.197.977.465.187.793.454.985.8.196.342.294.866.294 1.573v.676c0 .46.018.773.054.937.055.26.183.451.383.574V28h-2.317a6.993 6.993 0 0 1-.137-.54 4.975 4.975 0 0 1-.089-.868l-.014-.937c-.009-.642-.127-1.07-.355-1.285-.223-.214-.645-.321-1.265-.321h-2.174V28h-2.057V17.924zm12.578 1.784h-5.332v2.14h4.895v1.75h-4.895v2.59h5.578V28h-7.635V17.924h7.389zm3.931-.034v6.576h1.941c.994 0 1.687-.49 2.079-1.47.214-.538.321-1.178.321-1.92 0-1.026-.162-1.812-.486-2.359-.319-.552-.957-.827-1.914-.827zm2.297-1.75c.624.009 1.144.082 1.558.219a3.322 3.322 0 0 1 1.716 1.278 4.49 4.49 0 0 1 .718 1.627c.128.583.191 1.14.191 1.668 0 1.34-.268 2.474-.806 3.404-.729 1.253-1.855 1.88-3.377 1.88h-4.341V17.924zm16.994 0v1.784h-3.015V28h-2.119v-8.292h-3.028v-1.784zm5.448 8.572c.834 0 1.495-.307 1.983-.923.492-.615.738-1.49.738-2.625 0-1.13-.246-2.003-.738-2.618-.488-.62-1.149-.93-1.983-.93s-1.499.308-1.996.923c-.497.616-.745 1.49-.745 2.625s.248 2.01.745 2.625c.497.616 1.162.923 1.996.923zm4.826-3.548c0 1.81-.508 3.195-1.524 4.157-.761.783-1.862 1.175-3.302 1.175s-2.54-.392-3.301-1.175c-1.021-.962-1.532-2.348-1.532-4.157 0-1.846.511-3.23 1.532-4.156.761-.784 1.861-1.176 3.301-1.176s2.541.392 3.302 1.176c1.016.925 1.524 2.31 1.524 4.156zm11.184-1.818c0-.524-.139-.898-.417-1.121-.273-.224-.658-.335-1.155-.335h-1.962v2.967h1.962c.497 0 .882-.121 1.155-.363.278-.241.417-.624.417-1.148zm2.085-.014c0 1.19-.301 2.03-.902 2.523-.602.492-1.461.738-2.578.738h-2.139V28h-2.092V17.924h4.389c1.011 0 1.818.26 2.42.78.601.519.902 1.323.902 2.412zm3.295 3.076h2.557l-1.258-3.965zm.13-6.268h2.379L275.414 28h-2.283l-.65-2.071h-3.711L268.072 28h-2.201zm8.757 6.966c.063.46.189.804.376 1.032.341.415.927.622 1.756.622.497 0 .901-.055 1.21-.164.588-.21.882-.6.882-1.17a.86.86 0 0 0-.437-.771c-.292-.178-.75-.335-1.374-.472l-1.067-.24c-1.048-.236-1.772-.494-2.174-.772-.679-.465-1.018-1.192-1.018-2.18 0-.903.328-1.653.984-2.25.657-.597 1.62-.895 2.892-.895 1.062 0 1.966.282 2.714.848.752.56 1.146 1.376 1.182 2.447h-2.023c-.037-.606-.301-1.037-.793-1.292-.328-.169-.736-.253-1.224-.253-.542 0-.975.11-1.298.328a1.045 1.045 0 0 0-.486.916c0 .36.16.629.479.807.205.118.642.257 1.312.417l1.737.417c.761.182 1.335.426 1.722.731.602.474.903 1.16.903 2.058 0 .92-.354 1.686-1.06 2.297-.702.606-1.695.909-2.981.909-1.312 0-2.344-.299-3.096-.896-.752-.601-1.128-1.426-1.128-2.474zm9.338 0c.063.46.189.804.376 1.032.341.415.927.622 1.756.622.497 0 .9-.055 1.21-.164.588-.21.882-.6.882-1.17a.86.86 0 0 0-.437-.771c-.292-.178-.75-.335-1.374-.472l-1.067-.24c-1.048-.236-1.773-.494-2.174-.772-.679-.465-1.018-1.192-1.018-2.18 0-.903.328-1.653.984-2.25s1.62-.895 2.892-.895c1.062 0 1.966.282 2.714.848.752.56 1.146 1.376 1.182 2.447h-2.023c-.037-.606-.301-1.037-.793-1.292-.328-.169-.736-.253-1.224-.253-.542 0-.975.11-1.299.328a1.046 1.046 0 0 0-.485.916c0 .36.16.629.479.807.205.118.642.257 1.312.417l1.736.417c.761.182 1.336.426 1.723.731.602.474.902 1.16.902 2.058 0 .92-.353 1.686-1.059 2.297-.702.606-1.695.909-2.981.909-1.312 0-2.344-.299-3.096-.896-.752-.601-1.128-1.426-1.128-2.474z" fill="#3d4955"/></svg>