<svg xmlns="http://www.w3.org/2000/svg" width="1920" viewBox="0 0 1440 810" height="1080" version="1"><defs><clipPath id="a"><path d="M28.191 22.191h123v123h-123zm0 0"/></clipPath><clipPath id="b"><path d="M241.098 234.672h165.5v88h-165.5zm0 0"/></clipPath><clipPath id="c"><path d="M279.348 234.672h89a38.253 38.253 0 0 1 38.25 38.25v11.5a38.253 38.253 0 0 1-38.25 38.25h-89a38.253 38.253 0 0 1-38.25-38.25v-11.5a38.253 38.253 0 0 1 38.25-38.25zm0 0"/></clipPath><clipPath id="d"><path d="M241.098 234.672h165.75v87.75h-165.75zm0 0"/></clipPath><clipPath id="e"><path d="M279.406 234.672h89.133a38.4 38.4 0 0 1 27.09 11.172 38.059 38.059 0 0 1 11.219 26.969v11.468a38.052 38.052 0 0 1-11.22 26.969 38.4 38.4 0 0 1-27.089 11.172h-89.133a38.406 38.406 0 0 1-27.09-11.172 38.052 38.052 0 0 1-11.218-26.969v-11.469a38.059 38.059 0 0 1 11.218-26.968 38.406 38.406 0 0 1 27.09-11.172zm0 0"/></clipPath><clipPath id="f"><path d="M460.555 462.57h165.5v88h-165.5zm0 0"/></clipPath><clipPath id="g"><path d="M498.805 462.57h89a38.253 38.253 0 0 1 38.25 38.25v11.5a38.253 38.253 0 0 1-38.25 38.25h-89a38.253 38.253 0 0 1-38.25-38.25v-11.5a38.253 38.253 0 0 1 38.25-38.25zm0 0"/></clipPath><clipPath id="h"><path d="M460.555 462.57h165.75v87.75h-165.75zm0 0"/></clipPath><clipPath id="i"><path d="M498.863 462.57h89.133a38.4 38.4 0 0 1 27.09 11.172 38.052 38.052 0 0 1 11.219 26.969v11.469a38.059 38.059 0 0 1-11.22 26.968 38.4 38.4 0 0 1-27.089 11.172h-89.133a38.4 38.4 0 0 1-27.09-11.172 38.059 38.059 0 0 1-11.218-26.968v-11.47a38.052 38.052 0 0 1 11.218-26.968 38.4 38.4 0 0 1 27.09-11.172zm0 0"/></clipPath><clipPath id="j"><path d="M693.512 687.465h165.5v88h-165.5zm0 0"/></clipPath><clipPath id="k"><path d="M731.762 687.465h89a38.253 38.253 0 0 1 38.25 38.25v11.5a38.253 38.253 0 0 1-38.25 38.25h-89a38.253 38.253 0 0 1-38.25-38.25v-11.5a38.253 38.253 0 0 1 38.25-38.25zm0 0"/></clipPath><clipPath id="l"><path d="M693.512 687.465h165.75v87.75h-165.75zm0 0"/></clipPath><clipPath id="m"><path d="M731.82 687.465h89.133a38.395 38.395 0 0 1 27.09 11.168 38.068 38.068 0 0 1 11.219 26.972v11.465a38.061 38.061 0 0 1-11.219 26.973 38.4 38.4 0 0 1-27.09 11.172H731.82a38.406 38.406 0 0 1-27.09-11.172 38.061 38.061 0 0 1-11.218-26.973v-11.465a38.068 38.068 0 0 1 11.218-26.972 38.402 38.402 0 0 1 27.09-11.168zm0 0"/></clipPath><clipPath id="n"><path d="M924.977 232.422h165.5v88h-165.5zm0 0"/></clipPath><clipPath id="o"><path d="M963.227 232.422h89a38.253 38.253 0 0 1 38.25 38.25v11.5a38.253 38.253 0 0 1-38.25 38.25h-89a38.253 38.253 0 0 1-38.25-38.25v-11.5a38.253 38.253 0 0 1 38.25-38.25zm0 0"/></clipPath><clipPath id="p"><path d="M263.527 24.45h120.641v120.64h-120.64zm0 0"/></clipPath><clipPath id="q"><path d="M323.848 24.45c-33.313 0-60.32 27.007-60.32 60.32 0 33.316 27.007 60.32 60.32 60.32 33.316 0 60.32-27.004 60.32-60.32 0-33.313-27.004-60.32-60.32-60.32zm0 0"/></clipPath><clipPath id="r"><path d="M284.066 45.086h79.715v79.719h-79.715zm0 0"/></clipPath><clipPath id="s"><path d="M239.973 462.594h165.5v88h-165.5zm0 0"/></clipPath><clipPath id="t"><path d="M278.223 462.594h89a38.253 38.253 0 0 1 38.25 38.25v11.5a38.253 38.253 0 0 1-38.25 38.25h-89a38.253 38.253 0 0 1-38.25-38.25v-11.5a38.253 38.253 0 0 1 38.25-38.25zm0 0"/></clipPath><clipPath id="u"><path d="M460.555 685.965h165.5v88h-165.5zm0 0"/></clipPath><clipPath id="v"><path d="M498.805 685.965h89a38.253 38.253 0 0 1 38.25 38.25v11.5a38.253 38.253 0 0 1-38.25 38.25h-89a38.253 38.253 0 0 1-38.25-38.25v-11.5a38.253 38.253 0 0 1 38.25-38.25zm0 0"/></clipPath><clipPath id="w"><path d="M924.977 462.594h165.5v88h-165.5zm0 0"/></clipPath><clipPath id="x"><path d="M963.227 462.594h89a38.253 38.253 0 0 1 38.25 38.25v11.5a38.253 38.253 0 0 1-38.25 38.25h-89a38.253 38.253 0 0 1-38.25-38.25v-11.5a38.253 38.253 0 0 1 38.25-38.25zm0 0"/></clipPath><clipPath id="y"><path d="M926.469 687.465h165.5v88h-165.5zm0 0"/></clipPath><clipPath id="z"><path d="M964.719 687.465h89a38.237 38.237 0 0 1 27.047 11.203 38.237 38.237 0 0 1 11.203 27.047v11.5a38.253 38.253 0 0 1-38.25 38.25h-89a38.26 38.26 0 0 1-27.047-11.203 38.26 38.26 0 0 1-11.203-27.047v-11.5a38.253 38.253 0 0 1 38.25-38.25zm0 0"/></clipPath><clipPath id="A"><path d="M1186.941 670.152h237.375v121.125h-237.375zm0 0"/></clipPath><clipPath id="B"><path d="M1225.191 670.152h160.875a38.237 38.237 0 0 1 27.047 11.203 38.237 38.237 0 0 1 11.203 27.047v44.625a38.253 38.253 0 0 1-38.25 38.25h-160.875a38.26 38.26 0 0 1-27.046-11.203 38.26 38.26 0 0 1-11.204-27.047v-44.625a38.253 38.253 0 0 1 38.25-38.25zm0 0"/></clipPath></defs><path fill="#fff" d="M-144 -81H1584V891H-144z"/><path fill="#fff" d="M-144 -81H1584V891H-144z"/><g clip-path="url(#a)"><path fill="#00004d" d="M133.176 40.203C121.563 28.59 106.117 22.191 89.69 22.191c-16.43 0-31.87 6.399-43.488 18.012C34.586 51.82 28.191 67.262 28.191 83.691c0 16.426 6.395 31.871 18.012 43.489 11.617 11.613 27.059 18.011 43.488 18.011 16.426 0 31.871-6.398 43.485-18.011 11.617-11.618 18.015-27.063 18.015-43.489 0-16.43-6.398-31.87-18.015-43.488zm-6.7 84.055v-1.203c0-10.688-8.66-19.348-19.347-19.348H73.594c-10.688 0-19.352 8.664-19.352 19.348v2.379c-11.824-10.059-19.344-25.04-19.344-41.743 0-30.214 24.579-54.793 54.793-54.793 30.211 0 54.79 24.579 54.79 54.793 0 16.067-6.95 30.54-18.004 40.567zm0 0"/></g><path fill="#00004d" d="M111.941 76.2a22.555 22.555 0 0 1-.43 4.363c-.144.718-.32 1.425-.534 2.128-.211.7-.457 1.387-.739 2.067a23.558 23.558 0 0 1-.937 1.984 22.781 22.781 0 0 1-2.438 3.645 22.279 22.279 0 0 1-3.097 3.097 22.84 22.84 0 0 1-1.762 1.309c-.61.406-1.238.781-1.883 1.129-.648.344-1.308.656-1.984.937-.676.282-1.367.528-2.067.739-.703.215-1.41.39-2.129.535a22.555 22.555 0 0 1-6.554.32 22.03 22.03 0 0 1-4.3-.855c-.7-.211-1.392-.457-2.067-.739a23.558 23.558 0 0 1-1.985-.937 22.108 22.108 0 0 1-3.645-2.438 21.497 21.497 0 0 1-1.624-1.472 22.333 22.333 0 0 1-1.477-1.625 22.124 22.124 0 0 1-1.305-1.766 21.747 21.747 0 0 1-1.129-1.879 22.399 22.399 0 0 1-.937-1.984 23.269 23.269 0 0 1-.742-2.067 22.566 22.566 0 0 1-.855-4.3 22.859 22.859 0 0 1 0-4.383 22.566 22.566 0 0 1 1.597-6.367c.277-.676.594-1.34.937-1.985a22.424 22.424 0 0 1 2.434-3.644c.465-.567.957-1.11 1.477-1.625a22.06 22.06 0 0 1 3.387-2.781c.609-.41 1.238-.786 1.882-1.13a22.833 22.833 0 0 1 4.05-1.68c.7-.21 1.411-.39 2.13-.53.719-.145 1.441-.25 2.172-.325a22.737 22.737 0 0 1 4.383 0 22.566 22.566 0 0 1 6.367 1.598c.675.277 1.336.59 1.984.938.645.343 1.274.718 1.883 1.128.605.407 1.195.84 1.762 1.305.566.465 1.105.957 1.625 1.477.52.515 1.007 1.058 1.472 1.625a22.108 22.108 0 0 1 2.438 3.644c.344.645.656 1.309.937 1.985.282.675.528 1.367.739 2.066a22.03 22.03 0 0 1 .855 4.3c.074.727.11 1.458.11 2.192zm0 0"/><g clip-path="url(#b)"><g clip-path="url(#c)"><path fill="#fff" d="M241.098 234.672h165.5v88h-165.5zm0 0"/></g></g><g clip-path="url(#d)"><g clip-path="url(#e)"><path transform="matrix(.75117 0 0 .7479 241.098 234.672)" fill="none" d="M50.998 0h118.659c13.526 0 26.5 5.374 36.064 14.937a51 51 0 0 1 14.935 36.06V66.33a50.99 50.99 0 0 1-14.935 36.059 51.006 51.006 0 0 1-36.064 14.938H50.998a51.015 51.015 0 0 1-36.064-14.938A50.99 50.99 0 0 1 0 66.33V50.997A51 51 0 0 1 50.998 0zm0 0" stroke="#00004d" stroke-width="12"/></g></g><path d="M276.192 268.653c-.02-1.516-.492-2.739-1.399-3.664-.925-.903-2.128-1.375-3.585-1.375-1.594 0-2.872.492-3.856 1.476-.984.985-1.457 2.203-1.457 3.66 0 1.496.453 2.739 1.395 3.68.945.965 2.285 1.438 4.039 1.438 1.004 0 1.91-.235 2.734-.727a4.222 4.222 0 0 0 1.793-1.969l-2.402-.984c-.434.867-1.18 1.3-2.227 1.3-.61 0-1.121-.18-1.555-.574-.433-.39-.687-.921-.765-1.593h7.242zm-5.063-2.72c.985 0 1.657.493 1.989 1.458h-4.035c.355-.965 1.043-1.457 2.046-1.457zm0 0" fill="#00004d"/><path d="M291.529 273.672l-7.09-8.25 6.398-6.515h-3.957l-5.316 5.73v-5.73h-3.07v14.765h3.07v-7.148l5.867 7.148zm0 0" fill="#00004d"/><path d="M304.05 258.907h-3.446l-3.25 5.117-3.227-5.117h-3.488l5.18 7.836v6.93h3.07v-6.97zm0 0" fill="#00004d"/><path d="M312.397 273.868c1.14 0 2.223-.235 3.246-.747a7.573 7.573 0 0 0 2.598-2.046l-2.34-1.832c-.887 1.082-2.05 1.613-3.504 1.613-1.3 0-2.383-.434-3.25-1.297-.887-.867-1.32-1.969-1.32-3.27 0-1.3.433-2.382 1.32-3.25.867-.863 1.95-1.316 3.25-1.316 1.453 0 2.637.55 3.504 1.613l2.34-1.832c-.688-.863-1.555-1.535-2.578-2.047a7.488 7.488 0 0 0-3.266-.746c-2.11 0-3.898.746-5.375 2.223-1.476 1.476-2.207 3.27-2.207 5.355 0 2.106.73 3.899 2.207 5.375 1.477 1.477 3.266 2.204 5.375 2.204zm0 0" fill="#00004d"/><path d="M330.253 273.868c1.121 0 2.125-.274 2.992-.825.867-.55 1.496-1.34 1.91-2.363l-2.62-1.023a2.394 2.394 0 0 1-.864 1.14c-.395.278-.867.414-1.418.414-.75 0-1.34-.215-1.793-.668-.473-.453-.688-1.043-.688-1.793 0-.726.215-1.32.688-1.793.453-.453 1.043-.687 1.793-.687.531 0 1.004.156 1.418.433.39.274.687.668.863 1.141l2.621-1.043c-.414-1.004-1.043-1.793-1.91-2.344-.867-.55-1.871-.824-2.992-.824-1.555 0-2.856.492-3.899 1.457-1.042.965-1.554 2.184-1.554 3.66 0 1.496.512 2.72 1.554 3.68 1.043.965 2.344 1.438 3.899 1.438zm0 0" fill="#00004d"/><path d="M342.692 263.633c-1.082 0-1.968.41-2.656 1.2v-5.926h-2.973v14.765h2.973v-5.887c0-.433.176-.789.512-1.082.316-.296.73-.453 1.242-.453.453 0 .824.137 1.121.414.274.274.434.63.434 1.063v5.945h2.972v-6.3c0-1.063-.355-1.95-1.023-2.657-.691-.71-1.555-1.082-2.602-1.082zm0 0" fill="#00004d"/><path d="M358.682 268.653c-.02-1.516-.492-2.739-1.398-3.664-.926-.903-2.13-1.375-3.586-1.375-1.594 0-2.871.492-3.856 1.476-.984.985-1.457 2.203-1.457 3.66 0 1.496.453 2.739 1.395 3.68.945.965 2.285 1.438 4.039 1.438 1.004 0 1.91-.235 2.734-.727a4.222 4.222 0 0 0 1.793-1.969l-2.402-.984c-.434.867-1.18 1.3-2.227 1.3-.609 0-1.12-.18-1.554-.574-.434-.39-.688-.921-.766-1.593h7.242zm-5.062-2.72c.984 0 1.656.493 1.988 1.458h-4.035c.355-.965 1.043-1.457 2.047-1.457zm0 0" fill="#00004d"/><path d="M365.75 273.868c1.12 0 2.124-.274 2.992-.825.867-.55 1.496-1.34 1.91-2.363l-2.621-1.023a2.394 2.394 0 0 1-.864 1.14c-.394.278-.867.414-1.418.414-.75 0-1.34-.215-1.793-.668-.472-.453-.687-1.043-.687-1.793 0-.726.215-1.32.687-1.793.453-.453 1.043-.687 1.793-.687.532 0 1.004.156 1.418.433.39.274.688.668.864 1.141l2.62-1.043c-.413-1.004-1.042-1.793-1.91-2.344-.867-.55-1.87-.824-2.992-.824-1.554 0-2.855.492-3.898 1.457-1.043.965-1.555 2.184-1.555 3.66 0 1.496.512 2.72 1.555 3.68 1.043.965 2.344 1.438 3.898 1.438zm0 0" fill="#00004d"/><path d="M382.876 273.672l-4.687-5.394 4.332-4.45h-3.582l-3.406 3.485v-8.406h-2.973v14.765h2.973v-4.449l3.484 4.45zm0 0" fill="#00004d"/><path d="M284.372 286.657h-6.164v14.765h3.07v-6.043h3.094c1.218 0 2.261-.414 3.109-1.242.848-.824 1.277-1.852 1.277-3.07 0-1.223-.43-2.246-1.277-3.11-.867-.867-1.89-1.3-3.11-1.3zm-.473 6.164h-2.621v-3.446h2.621c.55 0 1.004.176 1.355.493.356.312.551.726.551 1.238s-.195.926-.55 1.242c-.352.312-.805.473-1.356.473zm0 0" fill="#00004d"/><path d="M295.73 291.442c-1.004 0-1.793.511-2.383 1.515v-1.379h-2.973v9.844h2.973v-4.785c0-.785.195-1.398.629-1.871.414-.45.965-.688 1.656-.688.235 0 .512.059.863.137v-2.637a2.05 2.05 0 0 0-.765-.136zm0 0" fill="#00004d"/><path d="M302.976 301.618c1.515 0 2.793-.493 3.86-1.477 1.042-.984 1.573-2.203 1.573-3.64 0-1.419-.53-2.637-1.574-3.622-1.066-.984-2.344-1.496-3.86-1.496-1.515 0-2.796.512-3.859 1.496-1.062.985-1.574 2.203-1.574 3.621 0 1.438.512 2.657 1.574 3.641 1.063.984 2.344 1.477 3.86 1.477zm0-2.657c-.711 0-1.282-.234-1.754-.707-.473-.472-.707-1.066-.707-1.754 0-.687.234-1.28.707-1.754a2.406 2.406 0 0 1 1.754-.726c.668 0 1.258.254 1.75.726.472.493.73 1.086.73 1.754 0 .688-.258 1.282-.73 1.754a2.45 2.45 0 0 1-1.75.707zm0 0" fill="#00004d"/><path d="M316.657 291.578l-2.184 6.657-2.168-6.657h-3.168l3.938 9.844h2.797l3.976-9.844zm0 0" fill="#00004d"/><path d="M322.721 289.766c.434 0 .828-.156 1.16-.492a1.54 1.54 0 0 0 .512-1.16c0-.454-.176-.848-.492-1.16-.332-.317-.727-.493-1.18-.493-.453 0-.848.176-1.16.492a1.522 1.522 0 0 0-.492 1.16c0 .454.156.848.492 1.16.312.337.707.493 1.16.493zm-1.477 11.656h2.954v-9.844h-2.954zm0 0" fill="#00004d"/><path d="M334.237 286.657v5.886c-.707-.77-1.692-1.16-2.914-1.16-1.336 0-2.48.512-3.426 1.496-.942 1.004-1.395 2.203-1.395 3.621 0 1.418.453 2.637 1.395 3.621.945 1.004 2.09 1.497 3.426 1.497 1.222 0 2.207-.372 2.914-1.16v.964h2.972v-14.765zm-2.301 12.304c-.711 0-1.281-.234-1.754-.707-.473-.472-.707-1.066-.707-1.754 0-.687.234-1.28.707-1.754a2.406 2.406 0 0 1 1.754-.726c.687 0 1.277.254 1.75.726.473.493.73 1.086.73 1.754 0 .688-.257 1.282-.73 1.754-.473.473-1.063.707-1.75.707zm0 0" fill="#00004d"/><path d="M349.813 296.403c-.02-1.516-.493-2.739-1.399-3.664-.926-.903-2.129-1.375-3.586-1.375-1.594 0-2.87.492-3.855 1.476-.985.985-1.457 2.203-1.457 3.66 0 1.496.453 2.739 1.394 3.68.946.965 2.285 1.438 4.04 1.438 1.003 0 1.91-.235 2.734-.727a4.222 4.222 0 0 0 1.793-1.969l-2.403-.984c-.433.867-1.18 1.3-2.226 1.3-.61 0-1.121-.18-1.555-.574-.434-.39-.687-.921-.766-1.593h7.243zm-5.063-2.72c.984 0 1.656.493 1.988 1.458h-4.035c.356-.965 1.043-1.457 2.047-1.457zm0 0" fill="#00004d"/><path d="M357.47 291.442c-1.004 0-1.793.511-2.383 1.515v-1.379h-2.973v9.844h2.973v-4.785c0-.785.195-1.398.629-1.871.414-.45.965-.688 1.656-.688.234 0 .512.059.863.137v-2.637a2.05 2.05 0 0 0-.765-.136zm0 0" fill="#00004d"/><path d="M366.507 301.422h2.973v-14.765h-5.063v2.656h2.09zm0 0" fill="#00004d"/><g clip-path="url(#f)"><g clip-path="url(#g)"><path fill="#fff" d="M460.555 462.57h165.5v88h-165.5zm0 0"/></g></g><g clip-path="url(#h)"><g clip-path="url(#i)"><path transform="matrix(.75117 0 0 .7479 460.555 462.57)" fill="none" d="M50.999 0h118.659A51.015 51.015 0 0 1 205.72 14.94a50.99 50.99 0 0 1 14.935 36.059v15.334a51 51 0 0 1-50.998 50.997H50.998A51 51 0 0 1 0 66.332l.001-15.334a50.99 50.99 0 0 1 14.935-36.06A51.006 51.006 0 0 1 51 .002zm0 0" stroke="#00004d" stroke-width="12"/></g></g><path d="M495.648 496.55c-.02-1.516-.492-2.738-1.398-3.664-.926-.902-2.129-1.375-3.586-1.375-1.594 0-2.871.492-3.856 1.476-.984.985-1.457 2.204-1.457 3.66 0 1.497.454 2.739 1.395 3.68.945.965 2.285 1.438 4.04 1.438 1.003 0 1.91-.235 2.733-.727a4.222 4.222 0 0 0 1.793-1.969l-2.402-.984c-.434.867-1.18 1.3-2.227 1.3-.609 0-1.12-.179-1.554-.573-.434-.39-.688-.922-.766-1.594h7.242zm-5.062-2.719c.984 0 1.656.492 1.988 1.457h-4.035c.355-.965 1.043-1.457 2.047-1.457zm0 0" fill="#00004d"/><path d="M510.985 501.57l-7.09-8.25 6.399-6.516h-3.957l-5.317 5.73v-5.73h-3.07v14.765h3.07v-7.148l5.867 7.148zm0 0" fill="#00004d"/><path d="M523.506 486.804h-3.446l-3.25 5.117-3.226-5.117h-3.489l5.18 7.836v6.93h3.07v-6.97zm0 0" fill="#00004d"/><path d="M531.854 501.765c1.14 0 2.222-.235 3.246-.746a7.573 7.573 0 0 0 2.597-2.047l-2.34-1.832c-.886 1.082-2.05 1.613-3.503 1.613-1.301 0-2.383-.434-3.25-1.297-.887-.867-1.32-1.969-1.32-3.27 0-1.3.433-2.382 1.32-3.25.867-.863 1.949-1.316 3.25-1.316 1.453 0 2.636.551 3.504 1.614l2.34-1.832c-.688-.864-1.555-1.536-2.579-2.047a7.488 7.488 0 0 0-3.265-.746c-2.11 0-3.899.746-5.375 2.222-1.477 1.477-2.207 3.27-2.207 5.356 0 2.105.73 3.898 2.207 5.375 1.476 1.476 3.265 2.203 5.375 2.203zm0 0" fill="#00004d"/><path d="M549.71 501.765c1.12 0 2.124-.274 2.992-.824.867-.551 1.496-1.34 1.91-2.364l-2.621-1.023a2.394 2.394 0 0 1-.864 1.14c-.394.278-.867.415-1.418.415-.75 0-1.34-.215-1.793-.668-.472-.454-.687-1.043-.687-1.793 0-.727.215-1.32.687-1.793.453-.453 1.043-.688 1.793-.688.532 0 1.004.156 1.418.434.39.273.688.668.864 1.14l2.62-1.043c-.413-1.004-1.042-1.793-1.91-2.343-.867-.551-1.87-.825-2.992-.825-1.554 0-2.855.493-3.898 1.457-1.043.965-1.555 2.184-1.555 3.66 0 1.497.512 2.72 1.555 3.68 1.043.965 2.344 1.438 3.898 1.438zm0 0" fill="#00004d"/><path d="M562.149 491.53c-1.082 0-1.969.41-2.656 1.2v-5.926h-2.973v14.765h2.973v-5.886c0-.434.175-.79.511-1.082.317-.297.73-.453 1.242-.453.454 0 .825.136 1.122.414.273.273.433.629.433 1.062v5.945h2.973v-6.3c0-1.063-.356-1.95-1.024-2.657-.691-.71-1.554-1.082-2.601-1.082zm0 0" fill="#00004d"/><path d="M578.139 496.55c-.02-1.516-.493-2.738-1.399-3.664-.926-.902-2.129-1.375-3.586-1.375-1.594 0-2.87.492-3.855 1.476-.985.985-1.457 2.204-1.457 3.66 0 1.497.453 2.739 1.394 3.68.946.965 2.285 1.438 4.04 1.438 1.003 0 1.91-.235 2.734-.727a4.222 4.222 0 0 0 1.793-1.969l-2.403-.984c-.433.867-1.18 1.3-2.226 1.3-.61 0-1.121-.179-1.555-.573-.434-.39-.687-.922-.766-1.594h7.243zm-5.063-2.719c.984 0 1.656.492 1.988 1.457h-4.035c.356-.965 1.043-1.457 2.047-1.457zm0 0" fill="#00004d"/><path d="M585.206 501.765c1.12 0 2.125-.274 2.992-.824.867-.551 1.496-1.34 1.91-2.364l-2.621-1.023a2.394 2.394 0 0 1-.863 1.14c-.395.278-.867.415-1.418.415-.75 0-1.34-.215-1.793-.668-.473-.454-.688-1.043-.688-1.793 0-.727.215-1.32.688-1.793.453-.453 1.043-.688 1.793-.688.531 0 1.004.156 1.418.434.39.273.687.668.863 1.14l2.621-1.043c-.414-1.004-1.043-1.793-1.91-2.343-.867-.551-1.871-.825-2.992-.825-1.555 0-2.856.493-3.899 1.457-1.043.965-1.554 2.184-1.554 3.66 0 1.497.511 2.72 1.554 3.68 1.043.965 2.344 1.438 3.899 1.438zm0 0" fill="#00004d"/><path d="M602.333 501.57l-4.688-5.395 4.332-4.45h-3.582l-3.406 3.485v-8.406h-2.973v14.765h2.973v-4.449l3.484 4.45zm0 0" fill="#00004d"/><path d="M501.789 514.554h-6.164v14.765h3.07v-6.042h3.094c1.219 0 2.262-.415 3.11-1.243.847-.824 1.277-1.851 1.277-3.07 0-1.223-.43-2.246-1.278-3.11-.867-.867-1.89-1.3-3.109-1.3zm-.473 6.164h-2.62v-3.445h2.62c.551 0 1.004.175 1.356.492.355.312.55.726.55 1.238s-.195.926-.55 1.242c-.352.313-.805.473-1.356.473zm0 0" fill="#00004d"/><path d="M513.147 519.339c-1.004 0-1.793.512-2.383 1.516v-1.38h-2.972v9.844h2.972v-4.785c0-.785.196-1.398.63-1.87.413-.45.964-.688 1.656-.688.234 0 .511.058.863.136v-2.636a2.05 2.05 0 0 0-.766-.137zm0 0" fill="#00004d"/><path d="M520.393 529.515c1.516 0 2.793-.492 3.86-1.477 1.042-.984 1.574-2.203 1.574-3.64 0-1.418-.532-2.637-1.575-3.621-1.066-.985-2.343-1.497-3.859-1.497s-2.797.512-3.86 1.497c-1.062.984-1.574 2.203-1.574 3.62 0 1.438.512 2.657 1.575 3.641 1.062.985 2.343 1.477 3.86 1.477zm0-2.656c-.71 0-1.281-.235-1.754-.707-.472-.473-.707-1.067-.707-1.754 0-.688.235-1.282.707-1.754a2.406 2.406 0 0 1 1.754-.727c.668 0 1.258.254 1.75.727.473.492.73 1.086.73 1.754 0 .687-.257 1.28-.73 1.754a2.45 2.45 0 0 1-1.75.707zm0 0" fill="#00004d"/><path d="M534.074 519.476l-2.183 6.656-2.168-6.656h-3.168l3.937 9.843h2.797l3.977-9.843zm0 0" fill="#00004d"/><path d="M540.138 517.663c.434 0 .828-.156 1.16-.492a1.54 1.54 0 0 0 .512-1.16c0-.453-.176-.848-.492-1.16-.332-.317-.727-.492-1.18-.492-.453 0-.847.175-1.16.492a1.522 1.522 0 0 0-.492 1.16c0 .453.156.848.492 1.16.313.336.707.492 1.16.492zm-1.476 11.656h2.953v-9.843h-2.953zm0 0" fill="#00004d"/><path d="M551.654 514.554v5.887c-.707-.77-1.691-1.16-2.914-1.16-1.336 0-2.48.511-3.426 1.496-.941 1.003-1.394 2.203-1.394 3.62 0 1.419.453 2.637 1.394 3.622.946 1.004 2.09 1.496 3.426 1.496 1.223 0 2.207-.371 2.914-1.16v.964h2.973v-14.765zm-2.3 12.305c-.712 0-1.282-.235-1.755-.707-.472-.473-.707-1.067-.707-1.754 0-.688.235-1.282.707-1.754a2.406 2.406 0 0 1 1.754-.727c.688 0 1.278.254 1.75.727.473.492.73 1.086.73 1.754 0 .687-.257 1.28-.73 1.754-.472.472-1.062.707-1.75.707zm0 0" fill="#00004d"/><path d="M567.23 524.3c-.02-1.516-.492-2.738-1.398-3.664-.926-.902-2.13-1.375-3.586-1.375-1.594 0-2.872.492-3.856 1.476-.984.985-1.457 2.204-1.457 3.66 0 1.497.453 2.739 1.395 3.68.945.965 2.285 1.438 4.039 1.438 1.004 0 1.91-.235 2.734-.727a4.222 4.222 0 0 0 1.793-1.969l-2.402-.984c-.434.867-1.18 1.3-2.227 1.3-.61 0-1.121-.179-1.555-.573-.433-.39-.687-.922-.765-1.594h7.242zm-5.063-2.719c.985 0 1.657.492 1.989 1.457h-4.035c.355-.965 1.043-1.457 2.046-1.457zm0 0" fill="#00004d"/><path d="M574.887 519.339c-1.004 0-1.793.512-2.383 1.516v-1.38h-2.973v9.844h2.973v-4.785c0-.785.195-1.398.629-1.87.414-.45.965-.688 1.656-.688.235 0 .512.058.864.136v-2.636a2.05 2.05 0 0 0-.766-.137zm0 0" fill="#00004d"/><path d="M586.01 526.663c1.22-1.3 2.145-2.285 2.735-2.953.593-.652 1.125-1.3 1.578-1.969.453-.652.746-1.203.863-1.656.121-.433.2-.965.2-1.555-.02-1.218-.454-2.222-1.321-3.011-.867-.79-1.93-1.18-3.207-1.18-1.379 0-2.563.45-3.504 1.316-.965.887-1.398 1.989-1.281 3.329h2.933c-.078-.59.04-1.082.375-1.438.332-.355.786-.531 1.336-.531.473 0 .868.156 1.223.433.355.293.531.746.531 1.36 0 .433-.136.844-.375 1.277-.234.434-.785 1.145-1.652 2.149-.867 1.003-2.344 2.617-4.39 4.84v2.245h9.605v-2.656zm0 0" fill="#00004d"/><g clip-path="url(#j)"><g clip-path="url(#k)"><path fill="#fff" d="M693.512 687.465h165.5v88h-165.5zm0 0"/></g></g><g clip-path="url(#l)"><g clip-path="url(#m)"><path transform="matrix(.75117 0 0 .7479 693.512 687.463)" fill="none" d="M50.998.002h118.66c13.525 0 26.5 5.37 36.063 14.933a51.012 51.012 0 0 1 14.935 36.064v15.33a51.003 51.003 0 0 1-14.935 36.064 51.006 51.006 0 0 1-36.064 14.937H50.998a51.015 51.015 0 0 1-36.063-14.937A51.003 51.003 0 0 1 0 66.328v-15.33a51.012 51.012 0 0 1 14.935-36.063A51.01 51.01 0 0 1 50.998.002zm0 0" stroke="#00004d" stroke-width="12"/></g></g><path d="M728.606 721.444c-.02-1.516-.492-2.739-1.399-3.664-.925-.903-2.129-1.375-3.586-1.375-1.593 0-2.87.492-3.855 1.476-.984.984-1.457 2.203-1.457 3.66 0 1.496.453 2.739 1.394 3.68.946.965 2.286 1.437 4.04 1.437 1.003 0 1.91-.234 2.734-.726a4.222 4.222 0 0 0 1.793-1.969l-2.402-.984c-.434.867-1.18 1.3-2.227 1.3-.61 0-1.121-.18-1.555-.574-.433-.39-.687-.922-.765-1.593h7.242zm-5.063-2.72c.985 0 1.657.493 1.989 1.458h-4.036c.356-.965 1.043-1.457 2.047-1.457zm0 0" fill="#00004d"/><path d="M743.942 726.463l-7.09-8.25 6.4-6.516h-3.958l-5.316 5.731v-5.73h-3.07v14.765h3.07v-7.148l5.867 7.148zm0 0" fill="#00004d"/><path d="M756.463 711.697h-3.445l-3.25 5.118-3.227-5.118h-3.488l5.18 7.836v6.93h3.07v-6.969zm0 0" fill="#00004d"/><path d="M764.811 726.658c1.14 0 2.223-.234 3.246-.746a7.573 7.573 0 0 0 2.598-2.047l-2.34-1.832c-.887 1.082-2.05 1.614-3.504 1.614-1.3 0-2.383-.434-3.25-1.297-.887-.867-1.32-1.969-1.32-3.27 0-1.3.433-2.383 1.32-3.25.867-.863 1.95-1.316 3.25-1.316 1.453 0 2.637.55 3.504 1.613l2.34-1.832c-.688-.863-1.555-1.535-2.578-2.047a7.488 7.488 0 0 0-3.266-.746c-2.11 0-3.898.746-5.375 2.223-1.476 1.476-2.207 3.27-2.207 5.355 0 2.106.73 3.899 2.207 5.375 1.477 1.477 3.266 2.203 5.375 2.203zm0 0" fill="#00004d"/><path d="M782.667 726.658c1.12 0 2.125-.273 2.992-.824.867-.55 1.496-1.34 1.91-2.363l-2.62-1.024a2.394 2.394 0 0 1-.864 1.141c-.395.277-.867.414-1.418.414-.75 0-1.34-.215-1.793-.668-.473-.453-.688-1.043-.688-1.793 0-.726.215-1.32.688-1.793.453-.453 1.043-.687 1.793-.687.531 0 1.004.156 1.418.433.39.274.687.668.863 1.141l2.621-1.043c-.414-1.004-1.043-1.793-1.91-2.344-.867-.55-1.871-.824-2.992-.824-1.555 0-2.856.492-3.899 1.457-1.043.965-1.554 2.184-1.554 3.66 0 1.496.511 2.719 1.554 3.68 1.043.965 2.344 1.437 3.899 1.437zm0 0" fill="#00004d"/><path d="M795.106 716.424c-1.082 0-1.968.41-2.656 1.2v-5.927h-2.973v14.766h2.973v-5.887c0-.433.176-.789.512-1.082.316-.297.73-.453 1.242-.453.453 0 .824.137 1.121.414.273.274.434.63.434 1.063v5.945h2.972v-6.3c0-1.063-.355-1.95-1.023-2.657-.692-.71-1.555-1.082-2.602-1.082zm0 0" fill="#00004d"/><path d="M811.096 721.444c-.02-1.516-.492-2.739-1.398-3.664-.926-.903-2.13-1.375-3.586-1.375-1.594 0-2.871.492-3.856 1.476-.984.984-1.457 2.203-1.457 3.66 0 1.496.453 2.739 1.395 3.68.945.965 2.285 1.437 4.039 1.437 1.004 0 1.91-.234 2.734-.726a4.222 4.222 0 0 0 1.793-1.969l-2.402-.984c-.434.867-1.18 1.3-2.227 1.3-.61 0-1.12-.18-1.554-.574-.434-.39-.688-.922-.766-1.593h7.242zm-5.062-2.72c.984 0 1.656.493 1.988 1.458h-4.035c.355-.965 1.043-1.457 2.047-1.457zm0 0" fill="#00004d"/><path d="M818.163 726.658c1.121 0 2.125-.273 2.992-.824.868-.55 1.497-1.34 1.91-2.363l-2.62-1.024a2.394 2.394 0 0 1-.864 1.141c-.394.277-.867.414-1.418.414-.75 0-1.34-.215-1.793-.668-.472-.453-.687-1.043-.687-1.793 0-.726.215-1.32.687-1.793.453-.453 1.043-.687 1.793-.687.531 0 1.004.156 1.418.433.39.274.688.668.863 1.141l2.622-1.043c-.414-1.004-1.043-1.793-1.91-2.344-.868-.55-1.872-.824-2.993-.824-1.554 0-2.855.492-3.898 1.457-1.043.965-1.555 2.184-1.555 3.66 0 1.496.512 2.719 1.555 3.68 1.043.965 2.344 1.437 3.898 1.437zm0 0" fill="#00004d"/><path d="M835.29 726.463l-4.687-5.394 4.332-4.45h-3.582l-3.407 3.485v-8.407h-2.972v14.766h2.972v-4.45l3.485 4.45zm0 0" fill="#00004d"/><path d="M734.418 739.447h-6.164v14.766h3.07v-6.043h3.094c1.22 0 2.262-.414 3.11-1.242.847-.824 1.277-1.852 1.277-3.07 0-1.223-.43-2.246-1.277-3.11-.867-.867-1.89-1.3-3.11-1.3zm-.472 6.165h-2.621v-3.446h2.62c.551 0 1.005.176 1.356.492.356.313.55.727.55 1.239 0 .511-.194.925-.55 1.242-.351.312-.805.473-1.355.473zm0 0" fill="#00004d"/><path d="M745.777 744.233c-1.004 0-1.793.511-2.383 1.515v-1.379h-2.973v9.844h2.973v-4.785c0-.785.195-1.398.629-1.871.414-.45.964-.688 1.656-.688.234 0 .512.059.863.137v-2.637a2.05 2.05 0 0 0-.765-.136zm0 0" fill="#00004d"/><path d="M753.022 754.408c1.516 0 2.793-.492 3.86-1.476 1.043-.985 1.574-2.203 1.574-3.64 0-1.419-.531-2.637-1.574-3.622-1.067-.984-2.344-1.496-3.86-1.496-1.515 0-2.796.512-3.859 1.496-1.062.985-1.574 2.203-1.574 3.621 0 1.438.512 2.656 1.574 3.64 1.063.985 2.344 1.477 3.86 1.477zm0-2.656c-.71 0-1.28-.234-1.753-.707-.473-.473-.707-1.066-.707-1.754 0-.687.234-1.281.707-1.754a2.406 2.406 0 0 1 1.753-.726c.668 0 1.258.254 1.75.726.473.493.73 1.086.73 1.754 0 .688-.257 1.281-.73 1.754a2.45 2.45 0 0 1-1.75.707zm0 0" fill="#00004d"/><path d="M766.704 744.37l-2.184 6.656-2.168-6.657h-3.168l3.937 9.844h2.797l3.977-9.844zm0 0" fill="#00004d"/><path d="M772.768 742.557c.433 0 .828-.156 1.16-.492a1.54 1.54 0 0 0 .512-1.16c0-.454-.176-.848-.493-1.16-.332-.317-.726-.493-1.18-.493-.452 0-.847.176-1.16.492a1.522 1.522 0 0 0-.492 1.16c0 .454.157.848.493 1.16.312.337.707.493 1.16.493zm-1.477 11.656h2.953v-9.844h-2.953zm0 0" fill="#00004d"/><path d="M784.283 739.447v5.887c-.707-.77-1.691-1.16-2.914-1.16-1.336 0-2.48.512-3.425 1.496-.942 1.004-1.395 2.203-1.395 3.621 0 1.418.453 2.637 1.395 3.621.945 1.004 2.09 1.496 3.425 1.496 1.223 0 2.207-.37 2.914-1.16v.965h2.973v-14.766zm-2.3 12.305c-.711 0-1.282-.234-1.754-.707-.473-.473-.707-1.066-.707-1.754 0-.687.234-1.281.707-1.754a2.406 2.406 0 0 1 1.754-.726c.687 0 1.277.254 1.75.726.472.493.73 1.086.73 1.754 0 .688-.258 1.281-.73 1.754-.473.473-1.063.707-1.75.707zm0 0" fill="#00004d"/><path d="M799.86 749.194c-.02-1.516-.493-2.739-1.4-3.664-.925-.903-2.128-1.375-3.585-1.375-1.594 0-2.871.492-3.856 1.476-.984.984-1.457 2.203-1.457 3.66 0 1.496.454 2.739 1.395 3.68.945.965 2.285 1.437 4.039 1.437 1.004 0 1.91-.234 2.734-.726a4.222 4.222 0 0 0 1.793-1.969l-2.402-.984c-.434.867-1.18 1.3-2.227 1.3-.609 0-1.12-.18-1.554-.574-.434-.39-.688-.922-.766-1.593h7.242zm-5.063-2.72c.984 0 1.656.493 1.988 1.458h-4.035c.355-.965 1.043-1.457 2.047-1.457zm0 0" fill="#00004d"/><path d="M807.516 744.233c-1.004 0-1.793.511-2.383 1.515v-1.379h-2.972v9.844h2.972v-4.785c0-.785.196-1.398.63-1.871.413-.45.964-.688 1.656-.688.234 0 .511.059.863.137v-2.637a2.05 2.05 0 0 0-.766-.136zm0 0" fill="#00004d"/><path d="M822.3 745.865c.926-.648 1.398-1.554 1.398-2.714 0-1.086-.414-2.012-1.238-2.758-.828-.75-1.832-1.14-3.055-1.14-1.238 0-2.261.37-3.09 1.12-.824.746-1.218 1.711-1.218 2.934l2.894.02c0-.395.117-.712.39-.946.278-.238.614-.355 1.048-.355.43 0 .804.14 1.12.414.294.277.454.629.454 1.082 0 .453-.16.828-.453 1.144a1.563 1.563 0 0 1-1.145.473h-1.18l.02 2.441h1.36c.55 0 1.023.196 1.398.551.352.352.55.824.55 1.418 0 .59-.198 1.082-.57 1.477-.375.39-.847.59-1.437.59-.512 0-.965-.141-1.32-.454-.375-.316-.551-.71-.551-1.203h-2.973c0 1.34.453 2.403 1.399 3.23.925.829 2.066 1.22 3.445 1.22s2.559-.454 3.504-1.395c.945-.926 1.437-2.05 1.437-3.387 0-.808-.199-1.535-.59-2.187a4.536 4.536 0 0 0-1.597-1.575zm0 0" fill="#00004d"/><g clip-path="url(#n)"><g clip-path="url(#o)"><path fill="#00bf63" d="M924.977 232.422h165.5v88h-165.5zm0 0"/></g></g><path d="M986.324 267.672h-8.762v21h4.367v-8.594h4.395c1.734 0 3.218-.59 4.425-1.765 1.203-1.176 1.817-2.633 1.817-4.367 0-1.735-.614-3.192-1.817-4.422-1.234-1.235-2.691-1.852-4.425-1.852zm-.672 8.766h-3.723v-4.899h3.723c.785 0 1.43.25 1.933.7.504.445.782 1.035.782 1.761 0 .73-.278 1.317-.782 1.766-.504.45-1.148.672-1.933.672zm0 0" fill="#fff"/><path d="M1005.614 274.672v1.43c-1.036-1.121-2.438-1.707-4.2-1.707-1.906 0-3.527.726-4.87 2.125-1.344 1.43-1.989 3.137-1.989 5.152 0 2.016.645 3.754 1.988 5.153 1.344 1.425 2.965 2.128 4.871 2.128 1.762 0 3.164-.562 4.2-1.71v1.43h4.199v-14zm-3.332 10.5c-1.008 0-1.82-.336-2.493-1.008-.672-.671-1.007-1.511-1.007-2.492 0-.98.335-1.82 1.007-2.492a3.424 3.424 0 0 1 2.493-1.035c.98 0 1.82.363 2.492 1.035.672.7 1.035 1.54 1.035 2.492 0 .98-.363 1.82-1.035 2.492-.672.672-1.512 1.008-2.492 1.008zm0 0" fill="#fff"/><path d="M1019.667 288.953c1.738 0 3.082-.421 4.031-1.289.953-.84 1.43-1.96 1.43-3.332 0-1.902-1.344-3.332-4.032-4.285a3.274 3.274 0 0 1-.53-.168 1.952 1.952 0 0 1-.477-.168c-.114-.027-.282-.082-.45-.136-.168-.06-.308-.086-.39-.141l-.336-.168a1.026 1.026 0 0 1-.309-.195c-.058-.059-.14-.114-.195-.168a.586.586 0 0 1-.14-.227c-.028-.082-.028-.168-.028-.277 0-.703.559-1.008 1.734-.926 1.121.14 2.016.531 2.742 1.203l2.215-2.547c-1.511-1.148-3.222-1.734-5.18-1.734-1.738 0-3.109.418-4.144 1.258-1.062.84-1.566 1.906-1.566 3.191 0 1.848 1.175 3.164 3.527 3.977.223.086.531.195.977.336.421.14.73.253.953.308.195.082.422.195.672.309.226.11.394.25.504.39a.893.893 0 0 1 .167.504c0 .364-.195.645-.53.813-.337.168-.786.25-1.345.195-1.23-.113-2.296-.617-3.218-1.457l-2.242 2.828c1.625 1.29 3.695 1.906 6.16 1.906zm0 0" fill="#fff"/><path d="M1033.693 288.953c1.738 0 3.082-.421 4.031-1.289.953-.84 1.43-1.96 1.43-3.332 0-1.902-1.344-3.332-4.031-4.285a3.274 3.274 0 0 1-.532-.168 1.952 1.952 0 0 1-.476-.168c-.114-.027-.281-.082-.45-.136-.167-.06-.308-.086-.39-.141l-.336-.168a1.026 1.026 0 0 1-.309-.195c-.058-.059-.14-.114-.195-.168a.586.586 0 0 1-.14-.227c-.028-.082-.028-.168-.028-.277 0-.703.559-1.008 1.734-.926 1.122.14 2.016.531 2.743 1.203l2.215-2.547c-1.512-1.148-3.223-1.734-5.18-1.734-1.738 0-3.11.418-4.145 1.258-1.062.84-1.566 1.906-1.566 3.191 0 1.848 1.176 3.164 3.527 3.977.223.086.531.195.977.336.422.14.73.253.953.308.195.082.422.195.672.309.226.11.394.25.504.39a.893.893 0 0 1 .168.504c0 .364-.196.645-.532.813-.336.168-.785.25-1.343.195-1.23-.113-2.297-.617-3.22-1.457l-2.241 2.828c1.625 1.29 3.695 1.906 6.16 1.906zm0 0" fill="#fff"/><g clip-path="url(#p)"><g clip-path="url(#q)"><path fill="#38b6ff" d="M263.527 24.45h120.641v120.64h-120.64zm0 0"/></g></g><g clip-path="url(#r)"><path fill="#fff" d="M361.07 93.695l-7.367 1.399a24.405 24.405 0 0 1-3.844 9.324l4.215 6.203-4.422 4.43-6.187-4.223a24.388 24.388 0 0 1-9.297 3.856l-1.398 7.379h-6.254l-1.399-7.38a24.363 24.363 0 0 1-9.297-3.855l-6.187 4.223-4.422-4.43 4.21-6.203a24.467 24.467 0 0 1-3.843-9.324l-7.363-1.399v-6.27l7.363-1.402a24.45 24.45 0 0 1 3.844-9.32L305.21 70.5l4.422-4.434 6.187 4.227a24.302 24.302 0 0 1 9.297-3.856l1.399-7.382h6.254l1.398 7.383a24.327 24.327 0 0 1 9.297 3.855l6.187-4.227 4.422 4.434-4.215 6.203a24.388 24.388 0 0 1 3.844 9.32l7.367 1.403zm-58.093-21.672l2.586 3.809c-3.856-.59-6.829-3.906-6.829-7.93 0-4.441 3.606-8.054 8.032-8.054 3.84 0 7.054 2.722 7.84 6.34l-3.454-2.36a2.708 2.708 0 0 0-1.52-.469c-.698 0-1.39.27-1.91.793l-4.421 4.434a2.71 2.71 0 0 0-.324 3.437zm-6.364 8.532l-3.281 2.238-1.422-1.426 2.235-3.289a1.354 1.354 0 0 0-.004-1.527 15.193 15.193 0 0 1-2.399-5.817 1.344 1.344 0 0 0-1.074-1.082l-3.906-.742v-2.02l3.906-.738a1.353 1.353 0 0 0 1.074-1.082c.395-2.11 1.2-4.066 2.399-5.82.316-.46.316-1.066.004-1.527l-2.235-3.29 1.422-1.425 3.281 2.238a1.348 1.348 0 0 0 1.524 0 15.095 15.095 0 0 1 5.804-2.406 1.349 1.349 0 0 0 1.079-1.078l.742-3.914h2.011l.739 3.914c.105.547.535.976 1.082 1.078a15.12 15.12 0 0 1 5.804 2.406c.461.313 1.063.316 1.524 0l3.277-2.238 1.422 1.426-2.23 3.289a1.355 1.355 0 0 0 0 1.523 15.154 15.154 0 0 1 2.277 5.313 26.623 26.623 0 0 0-4.348 1.77c-.77-5.18-5.172-9.188-10.554-9.188-5.918 0-10.73 4.828-10.73 10.761 0 5.434 4.054 9.887 9.284 10.602a27.346 27.346 0 0 0-1.718 4.375 15.079 15.079 0 0 1-5.465-2.324 1.348 1.348 0 0 0-1.524 0zm64.961 4.21l-5.62-1.07a26.965 26.965 0 0 0-2.86-6.941l3.215-4.73a2.71 2.71 0 0 0-.325-3.438l-4.421-4.434a2.691 2.691 0 0 0-3.43-.324l-4.719 3.223a26.826 26.826 0 0 0-6.926-2.867l-1.066-5.633a2.703 2.703 0 0 0-2.652-2.203h-6.254c-1.297 0-2.41.925-2.653 2.203l-.468 2.46a17.954 17.954 0 0 0-1.266-2.507l2.355-3.473a1.355 1.355 0 0 0-.16-1.718L321.32 50.3a1.346 1.346 0 0 0-1.715-.164l-3.464 2.367A17.713 17.713 0 0 0 311 50.375l-.781-4.137a1.352 1.352 0 0 0-1.328-1.097h-4.25c-.649 0-1.204.46-1.325 1.097l-.78 4.137a17.691 17.691 0 0 0-5.145 2.129l-3.461-2.367a1.345 1.345 0 0 0-1.715.164l-3.008 3.011a1.36 1.36 0 0 0-.16 1.72l2.36 3.472a17.684 17.684 0 0 0-2.126 5.152l-4.12.785a1.355 1.355 0 0 0-1.102 1.329v4.261a1.36 1.36 0 0 0 1.101 1.332l4.121.782a17.751 17.751 0 0 0 2.125 5.156l-2.36 3.472a1.36 1.36 0 0 0 .161 1.72l3.008 3.007a1.34 1.34 0 0 0 1.715.164l3.46-2.367c.7.43 1.43.793 2.18 1.113l-1.86.356a2.705 2.705 0 0 0-2.194 2.66v6.27c0 1.3.921 2.417 2.195 2.66l5.617 1.066a27 27 0 0 0 2.863 6.941l-3.214 4.73a2.716 2.716 0 0 0 .324 3.442l4.422 4.434a2.685 2.685 0 0 0 3.43.32l4.718-3.219a26.77 26.77 0 0 0 6.926 2.868l1.066 5.628a2.7 2.7 0 0 0 2.653 2.204h6.254a2.7 2.7 0 0 0 2.652-2.204l1.066-5.629a26.826 26.826 0 0 0 6.926-2.867l4.719 3.22a2.691 2.691 0 0 0 3.43-.32l4.421-4.435a2.716 2.716 0 0 0 .325-3.441l-3.215-4.73a26.852 26.852 0 0 0 2.86-6.942l5.62-1.067a2.705 2.705 0 0 0 2.196-2.66v-6.27c0-1.3-.922-2.417-2.196-2.66"/></g><path fill="#fff" d="M329.645 105.023c-7.957 0-14.43-6.488-14.43-14.464 0-7.973 6.473-14.461 14.43-14.461 7.953 0 14.425 6.488 14.425 14.46 0 7.977-6.472 14.465-14.425 14.465zm0-31.636c-9.45 0-17.133 7.703-17.133 17.172 0 9.468 7.683 17.171 17.133 17.171 9.44 0 17.125-7.703 17.125-17.171 0-9.47-7.684-17.172-17.125-17.172"/><path transform="matrix(0 .74725 -.75 0 326.097 145.093)" fill="none" d="M.002 2.999h102.94" stroke="#212163" stroke-width="6"/><path stroke-linecap="round" transform="matrix(0 .74725 -.75 0 326.097 145.093)" fill="#212163" stroke-linejoin="round" d="M104.441-6.001l12.003 9-12.003 9zm0 0" stroke="#212163" stroke-width="6"/><g clip-path="url(#s)"><g clip-path="url(#t)"><path fill="#ff3131" d="M239.973 462.594h165.5v88h-165.5zm0 0"/></g></g><path d="M309.598 489.547v-2.719h-9.078v14.766h9.078v-2.719h-6.004v-3.304h5.176v-2.72h-5.176v-3.304zm0 0" fill="#fff"/><path d="M317.335 491.614c-1.004 0-1.793.511-2.383 1.515v-1.379h-2.973v9.844h2.973v-4.785c0-.785.195-1.399.629-1.871.414-.45.965-.688 1.656-.688.234 0 .512.059.863.137v-2.637a2.05 2.05 0 0 0-.765-.136zm0 0" fill="#fff"/><path d="M325.19 491.614c-1.004 0-1.793.511-2.383 1.515v-1.379h-2.972v9.844h2.972v-4.785c0-.785.195-1.399.63-1.871.413-.45.964-.688 1.655-.688.235 0 .512.059.864.137v-2.637a2.05 2.05 0 0 0-.766-.136zm0 0" fill="#fff"/><path d="M332.436 501.79c1.516 0 2.793-.493 3.86-1.477 1.042-.985 1.573-2.203 1.573-3.64 0-1.419-.53-2.638-1.574-3.622-1.066-.984-2.343-1.496-3.86-1.496-1.515 0-2.796.512-3.858 1.496-1.063.984-1.575 2.203-1.575 3.621 0 1.438.512 2.656 1.575 3.64 1.062.985 2.343 1.477 3.859 1.477zm0-2.657c-.711 0-1.281-.234-1.754-.707-.473-.473-.707-1.066-.707-1.754 0-.687.234-1.281.707-1.754a2.406 2.406 0 0 1 1.754-.726c.668 0 1.258.254 1.75.726.473.492.73 1.086.73 1.754 0 .688-.257 1.281-.73 1.754a2.45 2.45 0 0 1-1.75.707zm0 0" fill="#fff"/><path d="M345.527 491.614c-1.004 0-1.793.511-2.383 1.515v-1.379h-2.972v9.844h2.972v-4.785c0-.785.196-1.399.63-1.871.413-.45.964-.688 1.655-.688.235 0 .512.059.864.137v-2.637a2.05 2.05 0 0 0-.766-.136zm0 0" fill="#fff"/><path d="M315.4 517.297v-2.719h-9.079v14.766h3.074v-6.023h5.176v-2.72h-5.176v-3.304zm0 0" fill="#fff"/><path d="M324.374 519.5v1.004c-.727-.789-1.711-1.199-2.953-1.199-1.336 0-2.48.512-3.426 1.496-.942 1.004-1.395 2.203-1.395 3.621 0 1.418.453 2.637 1.395 3.621.945 1.004 2.09 1.496 3.426 1.496 1.242 0 2.226-.39 2.953-1.199v1.004h2.953V519.5zm-2.34 7.383c-.711 0-1.281-.234-1.754-.707-.473-.473-.707-1.066-.707-1.754 0-.687.234-1.281.707-1.754a2.406 2.406 0 0 1 1.754-.726c.687 0 1.277.254 1.75.726.473.492.73 1.086.73 1.754 0 .688-.257 1.281-.73 1.754-.473.473-1.063.707-1.75.707zm0 0" fill="#fff"/><path d="M331.778 517.688c.434 0 .828-.156 1.16-.492a1.54 1.54 0 0 0 .512-1.16c0-.454-.176-.848-.492-1.16-.332-.317-.727-.493-1.18-.493-.453 0-.848.176-1.16.492a1.522 1.522 0 0 0-.492 1.16c0 .454.156.848.492 1.16.312.337.707.493 1.16.493zm-1.477 11.656h2.953V519.5h-2.953zm0 0" fill="#fff"/><path d="M336.247 529.344h2.972v-14.766h-2.972zm0 0" fill="#fff"/><path transform="matrix(-.00604 .75173 -.74998 -.00603 326.096 322.693)" fill="none" d="M.002 2.998l170.065.004" stroke="#212163" stroke-width="6"/><path stroke-linecap="round" transform="matrix(-.00604 .75173 -.74998 -.00603 326.096 322.693)" fill="#212163" stroke-linejoin="round" d="M171.57-6l11.997 8.998-12 9.003zm0 0" stroke="#212163" stroke-width="6"/><path transform="matrix(.7498 -.00325 .00326 .75 406.588 276.422)" fill="none" d="M0 3h674.679" stroke="#212163" stroke-width="6"/><path stroke-linecap="round" transform="matrix(.7498 -.00325 .00326 .75 406.588 276.422)" fill="#212163" stroke-linejoin="round" d="M676.177-5.999l12 9-12 9zm0 0" stroke="#212163" stroke-width="6"/><path transform="matrix(.74553 -.00033 .00033 .75 405.472 504.344)" fill="none" d="M0 3l56.943-.001" stroke="#212163" stroke-width="6"/><path stroke-linecap="round" transform="matrix(.74553 -.00033 .00033 .75 405.472 504.344)" fill="#212163" stroke-linejoin="round" d="M58.44-6l12 9-11.998 9zm0 0" stroke="#212163" stroke-width="6"/><g clip-path="url(#u)"><g clip-path="url(#v)"><path fill="#ff3131" d="M460.555 685.965h165.5v88h-165.5zm0 0"/></g></g><path d="M530.18 712.916v-2.719H521.1v14.766h9.079v-2.719h-6.004v-3.304h5.175v-2.72h-5.175v-3.304zm0 0" fill="#fff"/><path d="M537.916 714.983c-1.004 0-1.793.511-2.383 1.515v-1.379h-2.973v9.844h2.973v-4.785c0-.785.195-1.398.629-1.871.414-.45.965-.688 1.656-.688.235 0 .512.059.864.137v-2.637a2.05 2.05 0 0 0-.766-.136zm0 0" fill="#fff"/><path d="M545.771 714.983c-1.004 0-1.793.511-2.383 1.515v-1.379h-2.972v9.844h2.972v-4.785c0-.785.196-1.398.63-1.871.413-.45.964-.688 1.656-.688.234 0 .511.059.863.137v-2.637a2.05 2.05 0 0 0-.766-.136zm0 0" fill="#fff"/><path d="M553.017 725.158c1.516 0 2.793-.492 3.86-1.476 1.042-.985 1.574-2.203 1.574-3.64 0-1.419-.532-2.637-1.574-3.622-1.067-.984-2.344-1.496-3.86-1.496-1.515 0-2.797.512-3.86 1.496-1.062.985-1.573 2.203-1.573 3.621 0 1.438.511 2.656 1.574 3.64 1.062.985 2.344 1.477 3.86 1.477zm0-2.656c-.71 0-1.281-.234-1.754-.707-.472-.473-.707-1.066-.707-1.754 0-.687.235-1.281.707-1.754a2.406 2.406 0 0 1 1.754-.726c.668 0 1.258.254 1.75.726.473.493.73 1.086.73 1.754 0 .688-.257 1.281-.73 1.754a2.45 2.45 0 0 1-1.75.707zm0 0" fill="#fff"/><path d="M566.108 714.983c-1.004 0-1.793.511-2.382 1.515v-1.379h-2.973v9.844h2.973v-4.785c0-.785.195-1.398.628-1.871.414-.45.965-.688 1.657-.688.234 0 .511.059.863.137v-2.637a2.05 2.05 0 0 0-.766-.136zm0 0" fill="#fff"/><path d="M535.98 740.666v-2.719h-9.078v14.766h3.074v-6.023h5.176v-2.72h-5.176v-3.304zm0 0" fill="#fff"/><path d="M544.955 742.87v1.003c-.727-.789-1.71-1.199-2.953-1.199-1.336 0-2.48.512-3.426 1.496-.941 1.004-1.394 2.203-1.394 3.621 0 1.418.453 2.637 1.394 3.621.945 1.004 2.09 1.496 3.426 1.496 1.242 0 2.226-.39 2.953-1.199v1.004h2.953v-9.844zm-2.34 7.382c-.71 0-1.281-.234-1.754-.707-.472-.473-.707-1.066-.707-1.754 0-.687.235-1.281.707-1.754a2.406 2.406 0 0 1 1.754-.726c.688 0 1.278.254 1.75.726.473.493.73 1.086.73 1.754 0 .688-.257 1.281-.73 1.754-.472.473-1.062.707-1.75.707zm0 0" fill="#fff"/><path d="M552.36 741.057c.433 0 .827-.156 1.16-.492a1.54 1.54 0 0 0 .511-1.16c0-.454-.176-.848-.492-1.16-.332-.317-.727-.493-1.18-.493-.453 0-.847.176-1.16.492a1.522 1.522 0 0 0-.492 1.16c0 .454.156.848.492 1.16.313.337.707.493 1.16.493zm-1.477 11.656h2.953v-9.844h-2.953zm0 0" fill="#fff"/><path d="M556.828 752.713h2.973v-14.766h-2.973zm0 0" fill="#fff"/><path transform="matrix(0 .75201 -.75 0 545.551 550.573)" fill="none" d="M.002 3h164.023" stroke="#212163" stroke-width="6"/><path stroke-linecap="round" transform="matrix(0 .75201 -.75 0 545.551 550.573)" fill="#212163" stroke-linejoin="round" d="M165.526-6l12 9-12 9zm0 0" stroke="#212163" stroke-width="6"/><path transform="matrix(.7502 .01668 -.01667 .74982 626.105 727.714)" fill="none" d="M0 3.002l73.464-.004" stroke="#212163" stroke-width="6"/><path stroke-linecap="round" transform="matrix(.7502 .01668 -.01667 .74982 626.105 727.714)" fill="#212163" stroke-linejoin="round" d="M74.967-6l11.999 9-12 8.998zm0 0" stroke="#212163" stroke-width="6"/><g clip-path="url(#w)"><g clip-path="url(#x)"><path fill="#00bf63" d="M924.977 462.594h165.5v88h-165.5zm0 0"/></g></g><path d="M987.335 497.844h-8.761v21h4.367v-8.594h4.394c1.735 0 3.219-.59 4.426-1.765 1.203-1.176 1.816-2.633 1.816-4.367 0-1.735-.613-3.192-1.816-4.422-1.234-1.235-2.691-1.852-4.426-1.852zm-.672 8.766h-3.722v-4.899h3.722c.786 0 1.43.25 1.934.7.504.445.781 1.035.781 1.761 0 .73-.277 1.317-.781 1.766-.504.449-1.148.672-1.934.672zm0 0" fill="#fff"/><path d="M1005.953 504.844v1.43c-1.035-1.121-2.437-1.707-4.199-1.707-1.906 0-3.527.726-4.871 2.125-1.344 1.43-1.988 3.136-1.988 5.152s.644 3.754 1.988 5.152c1.344 1.426 2.965 2.13 4.871 2.13 1.762 0 3.164-.563 4.2-1.712v1.43h4.198v-14zm-3.332 10.5c-1.008 0-1.82-.336-2.492-1.008-.672-.672-1.008-1.511-1.008-2.492 0-.98.336-1.82 1.008-2.492a3.424 3.424 0 0 1 2.492-1.035c.98 0 1.82.363 2.492 1.035.672.7 1.036 1.539 1.036 2.492 0 .98-.364 1.82-1.036 2.492-.671.672-1.511 1.008-2.492 1.008zm0 0" fill="#fff"/><path d="M1019.334 519.125c1.739 0 3.082-.422 4.032-1.289.953-.84 1.43-1.96 1.43-3.332 0-1.902-1.344-3.332-4.032-4.285a3.274 3.274 0 0 1-.531-.168 1.952 1.952 0 0 1-.477-.168c-.113-.027-.281-.082-.449-.137-.168-.058-.309-.086-.39-.14l-.337-.168a1.026 1.026 0 0 1-.308-.195c-.059-.06-.14-.114-.195-.168a.586.586 0 0 1-.141-.227c-.027-.082-.027-.168-.027-.277 0-.703.558-1.008 1.734-.926 1.121.14 2.016.531 2.742 1.203l2.215-2.547c-1.512-1.148-3.223-1.734-5.18-1.734-1.738 0-3.109.418-4.144 1.258-1.063.84-1.567 1.906-1.567 3.19 0 1.849 1.176 3.165 3.528 3.978.222.085.531.195.976.335.422.141.73.254.953.309.196.082.422.195.672.309.227.109.395.25.504.39a.893.893 0 0 1 .168.504c0 .363-.195.645-.531.813-.336.168-.785.25-1.344.195-1.23-.113-2.297-.617-3.219-1.457l-2.242 2.828c1.625 1.29 3.696 1.906 6.16 1.906zm0 0" fill="#fff"/><path d="M1032.689 519.125c1.738 0 3.082-.422 4.03-1.289.954-.84 1.43-1.96 1.43-3.332 0-1.902-1.343-3.332-4.03-4.285a3.274 3.274 0 0 1-.532-.168 1.952 1.952 0 0 1-.477-.168c-.113-.027-.28-.082-.449-.137-.168-.058-.308-.086-.39-.14l-.336-.168a1.026 1.026 0 0 1-.309-.195c-.059-.06-.14-.114-.195-.168a.586.586 0 0 1-.14-.227c-.028-.082-.028-.168-.028-.277 0-.703.558-1.008 1.734-.926 1.121.14 2.016.531 2.742 1.203l2.215-2.547c-1.512-1.148-3.222-1.734-5.18-1.734-1.738 0-3.109.418-4.144 1.258-1.063.84-1.566 1.906-1.566 3.19 0 1.849 1.175 3.165 3.527 3.978.223.085.531.195.976.335.422.141.73.254.954.309.195.082.421.195.671.309.227.109.395.25.504.39a.893.893 0 0 1 .168.504c0 .363-.195.645-.53.813-.337.168-.786.25-1.345.195-1.23-.113-2.297-.617-3.218-1.457l-2.243 2.828c1.625 1.29 3.696 1.906 6.16 1.906zm0 0" fill="#fff"/><g clip-path="url(#y)"><g clip-path="url(#z)"><path fill="#00bf63" d="M926.469 687.465h165.5v88h-165.5zm0 0"/></g></g><path d="M988.829 722.713h-8.762v21h4.367v-8.594h4.395c1.734 0 3.219-.59 4.426-1.765 1.203-1.176 1.816-2.633 1.816-4.367 0-1.735-.613-3.192-1.816-4.422-1.235-1.235-2.692-1.852-4.426-1.852zm-.672 8.766h-3.723v-4.899h3.723c.785 0 1.43.25 1.934.7.504.445.78 1.035.78 1.761 0 .73-.276 1.317-.78 1.766-.504.45-1.149.672-1.934.672zm0 0" fill="#fff"/><path d="M1007.447 729.713v1.43c-1.035-1.121-2.438-1.707-4.2-1.707-1.906 0-3.527.726-4.87 2.125-1.344 1.43-1.989 3.136-1.989 5.152s.645 3.754 1.989 5.152c1.343 1.426 2.964 2.13 4.87 2.13 1.762 0 3.165-.563 4.2-1.712v1.43h4.2v-14zm-3.332 10.5c-1.008 0-1.82-.336-2.492-1.008-.672-.672-1.008-1.511-1.008-2.492 0-.98.336-1.82 1.008-2.492a3.424 3.424 0 0 1 2.492-1.035c.98 0 1.82.363 2.492 1.035.672.7 1.035 1.539 1.035 2.492 0 .98-.363 1.82-1.035 2.492-.672.672-1.512 1.008-2.492 1.008zm0 0" fill="#fff"/><path d="M1020.828 743.994c1.738 0 3.082-.422 4.031-1.289.953-.84 1.43-1.96 1.43-3.332 0-1.902-1.344-3.332-4.031-4.285a3.274 3.274 0 0 1-.532-.168 1.952 1.952 0 0 1-.476-.168c-.113-.027-.281-.082-.45-.137-.167-.058-.308-.085-.39-.14l-.336-.168a1.026 1.026 0 0 1-.308-.195c-.059-.059-.141-.114-.196-.168a.586.586 0 0 1-.14-.227c-.028-.082-.028-.168-.028-.277 0-.703.559-1.008 1.735-.926 1.12.14 2.015.531 2.742 1.203l2.215-2.547c-1.512-1.148-3.223-1.734-5.18-1.734-1.738 0-3.11.418-4.145 1.258-1.062.84-1.566 1.906-1.566 3.191 0 1.848 1.176 3.164 3.527 3.977.223.085.532.195.977.335.422.141.73.254.953.31.195.081.422.194.672.308.227.109.394.25.504.39a.893.893 0 0 1 .168.504c0 .363-.195.645-.531.813-.336.168-.786.25-1.344.195-1.23-.113-2.297-.617-3.219-1.457l-2.242 2.828c1.625 1.29 3.695 1.906 6.16 1.906zm0 0" fill="#fff"/><path d="M1034.182 743.994c1.739 0 3.082-.422 4.031-1.289.954-.84 1.43-1.96 1.43-3.332 0-1.902-1.344-3.332-4.031-4.285a3.274 3.274 0 0 1-.531-.168 1.952 1.952 0 0 1-.477-.168c-.113-.027-.281-.082-.45-.137-.167-.058-.308-.085-.39-.14l-.336-.168a1.026 1.026 0 0 1-.308-.195c-.059-.059-.14-.114-.196-.168a.586.586 0 0 1-.14-.227c-.028-.082-.028-.168-.028-.277 0-.703.559-1.008 1.735-.926 1.12.14 2.015.531 2.742 1.203l2.215-2.547c-1.512-1.148-3.223-1.734-5.18-1.734-1.738 0-3.11.418-4.144 1.258-1.063.84-1.567 1.906-1.567 3.191 0 1.848 1.176 3.164 3.528 3.977.222.085.53.195.976.335.422.141.73.254.953.31.196.081.422.194.672.308.227.109.395.25.504.39a.893.893 0 0 1 .168.504c0 .363-.195.645-.531.813-.336.168-.785.25-1.344.195-1.23-.113-2.297-.617-3.219-1.457l-2.242 2.828c1.625 1.29 3.695 1.906 6.16 1.906zm0 0" fill="#fff"/><path transform="matrix(.75085 .00006 -.00006 .75 626.055 504.32)" fill="none" d="M0 3.001h382.06" stroke="#212163" stroke-width="6"/><path stroke-linecap="round" transform="matrix(.75085 .00006 -.00006 .75 626.055 504.32)" fill="#212163" stroke-linejoin="round" d="M383.563-6l11.998 9-12.001 9zm0 0" stroke="#212163" stroke-width="6"/><path transform="matrix(.75052 0 0 .75 859.012 729.213)" fill="none" d="M0 3.002h73.443" stroke="#212163" stroke-width="6"/><path stroke-linecap="round" transform="matrix(.75052 0 0 .75 859.012 729.213)" fill="#212163" stroke-linejoin="round" d="M74.942-5.998l12.002 9-12.002 9zm0 0" stroke="#212163" stroke-width="6"/><path transform="matrix(0 .75173 -.75 0 1009.976 320.422)" fill="none" d="M0 3h173.064" stroke="#212163" stroke-width="6"/><path stroke-linecap="round" transform="matrix(0 .75173 -.75 0 1009.976 320.422)" fill="#212163" stroke-linejoin="round" d="M174.56-6l12.004 9-12.004 9zm0 0" stroke="#212163" stroke-width="6"/><path transform="matrix(.0082 .75201 -.74996 .00818 1009.975 550.57)" fill="none" d="M-.002 2.997l166.003.004" stroke="#212163" stroke-width="6"/><path stroke-linecap="round" transform="matrix(.0082 .75201 -.74996 .00818 1009.975 550.57)" fill="#212163" stroke-linejoin="round" d="M167.502-5.998l12 8.996-11.999 9zm0 0" stroke="#212163" stroke-width="6"/><g clip-path="url(#A)"><g clip-path="url(#B)"><path fill="#38b6ff" d="M1186.941 670.152h237.375v121.125h-237.375zm0 0"/></g></g><path d="M1224.883 706.9h-7.511v18h3.742v-7.367h3.77c1.488 0 2.761-.503 3.792-1.511 1.032-1.008 1.559-2.258 1.559-3.746 0-1.489-.527-2.735-1.559-3.79-1.058-1.058-2.304-1.585-3.793-1.585zm-.574 7.512h-3.195v-4.199h3.195c.672 0 1.223.215 1.653.598.433.387.675.89.675 1.515 0 .622-.242 1.125-.675 1.512-.43.383-.981.574-1.653.574zm0 0" fill="#fff"/><path d="M1243.41 710.213v-3.312h-11.062v18h11.063v-3.313h-7.32v-4.031h6.312v-3.313h-6.313v-4.03zm0 0" fill="#fff"/><path d="M1253.827 706.9h-7.511v18h3.742v-7.367h3.77c1.488 0 2.761-.503 3.792-1.511 1.032-1.008 1.559-2.258 1.559-3.746 0-1.489-.527-2.735-1.559-3.79-1.058-1.058-2.304-1.585-3.793-1.585zm-.574 7.512h-3.195v-4.199h3.195c.672 0 1.223.215 1.653.598.433.387.675.89.675 1.515 0 .622-.242 1.125-.675 1.512-.43.383-.98.574-1.653.574zm0 0" fill="#fff"/><path d="M1273.797 724.9h2.711v-6.07h6.07v-2.738h-6.07v-6.07h-2.71v6.07h-6.098v2.738h6.097zm0 0" fill="#fff"/><path d="M1298.178 725.139c1.707 0 3.145-.477 4.32-1.438 1.176-.96 1.778-2.234 1.778-3.84 0-.89-.168-1.68-.457-2.351-.313-.672-.719-1.203-1.2-1.586a10.478 10.478 0 0 0-1.632-1.031c-.598-.29-1.2-.528-1.774-.719a16.537 16.537 0 0 1-1.632-.625c-.504-.191-.914-.457-1.2-.793a1.538 1.538 0 0 1-.457-1.129c0-.55.168-.984.551-1.27.36-.288.84-.433 1.418-.433 1.055 0 2.063.527 2.973 1.563l2.472-2.305a7.262 7.262 0 0 0-2.421-1.824 6.966 6.966 0 0 0-3.024-.696c-1.539 0-2.86.453-3.96 1.368-1.106.91-1.657 2.207-1.657 3.84 0 1.128.289 2.062.863 2.808.578.766 1.274 1.32 2.09 1.68.816.359 1.656.672 2.469.957.816.289 1.515.625 2.09 1.011.574.407.863.91.863 1.512 0 .574-.238 1.031-.672 1.367-.43.336-1.031.48-1.777.48-.84 0-1.582-.218-2.207-.648a3.805 3.805 0 0 1-1.438-1.754l-3.05 1.899c.578 1.176 1.44 2.133 2.64 2.855 1.2.743 2.543 1.102 4.031 1.102zm0 0" fill="#fff"/><path d="M1315.436 712.9v1.223c-.89-.957-2.09-1.46-3.601-1.46-1.633 0-3.024.62-4.176 1.824-1.152 1.222-1.703 2.687-1.703 4.414 0 1.726.55 3.214 1.703 4.414 1.152 1.226 2.543 1.824 4.176 1.824 1.512 0 2.71-.477 3.601-1.461v1.223h3.598v-12zm-2.855 9c-.867 0-1.562-.288-2.137-.863-.578-.578-.863-1.297-.863-2.136 0-.84.285-1.559.863-2.137a2.94 2.94 0 0 1 2.137-.887c.84 0 1.559.313 2.133.887.578.601.89 1.32.89 2.137 0 .84-.312 1.558-.89 2.136-.574.575-1.293.864-2.133.864zm0 0" fill="#fff"/><path d="M1329.668 712.662c-1.394 0-2.496.504-3.36 1.461v-1.222h-3.624v12h3.625v-7.176c0-.527.215-.961.621-1.32.387-.36.89-.551 1.516-.551.55 0 1.007.168 1.367.504.336.336.527.765.527 1.297v7.246h3.625v-7.68c0-1.297-.433-2.375-1.25-3.242-.84-.864-1.848-1.317-3.047-1.317zm0 0" fill="#fff"/><path d="M1343.133 725.139c1.367 0 2.59-.336 3.648-1.008 1.055-.672 1.824-1.629 2.328-2.879l-3.195-1.246a2.921 2.921 0 0 1-1.055 1.39c-.48.337-1.055.505-1.726.505-.915 0-1.633-.266-2.184-.817-.578-.55-.84-1.273-.84-2.183 0-.887.262-1.61.84-2.184.55-.55 1.27-.84 2.184-.84.648 0 1.222.192 1.726.528.48.335.84.816 1.055 1.39l3.195-1.27c-.504-1.226-1.273-2.183-2.328-2.855-1.059-.672-2.281-1.008-3.648-1.008-1.899 0-3.481.598-4.754 1.774-1.27 1.176-1.895 2.664-1.895 4.465 0 1.824.625 3.312 1.895 4.488 1.273 1.176 2.855 1.75 4.754 1.75zm0 0" fill="#fff"/><path d="M1358.178 712.9h-2.254v-4.32h-3.625v4.32h-2.254v2.81h2.254v9.19h3.625v-9.19h2.254zm0 0" fill="#fff"/><path d="M1362.213 710.694c.528 0 1.008-.192 1.414-.602.41-.383.625-.863.625-1.414 0-.555-.214-1.035-.601-1.418-.406-.383-.887-.598-1.438-.598a1.96 1.96 0 0 0-1.418.598c-.406.383-.597.863-.597 1.418 0 .55.191 1.031.597 1.414.383.41.864.602 1.418.602zm-1.8 14.207h3.597v-12h-3.597zm0 0" fill="#fff"/><path d="M1373.445 725.139c1.848 0 3.406-.598 4.703-1.797 1.274-1.203 1.918-2.687 1.918-4.441 0-1.727-.644-3.215-1.918-4.414-1.297-1.204-2.855-1.825-4.703-1.825-1.848 0-3.41.621-4.707 1.825-1.293 1.199-1.918 2.687-1.918 4.414 0 1.754.625 3.238 1.918 4.441 1.297 1.2 2.86 1.797 4.707 1.797zm0-3.238c-.867 0-1.562-.29-2.137-.864-.578-.578-.863-1.297-.863-2.136 0-.84.285-1.559.863-2.137a2.94 2.94 0 0 1 2.137-.887c.817 0 1.535.313 2.133.887.578.601.89 1.32.89 2.137 0 .84-.312 1.558-.89 2.136a2.988 2.988 0 0 1-2.133.864zm0 0" fill="#fff"/><path d="M1389.86 712.662c-1.394 0-2.496.504-3.359 1.461v-1.222h-3.625v12h3.625v-7.176c0-.527.215-.961.621-1.32.387-.36.89-.551 1.516-.551.55 0 1.008.168 1.367.504.336.336.527.765.527 1.297v7.246h3.625v-7.68c0-1.297-.433-2.375-1.25-3.242-.84-.864-1.847-1.317-3.047-1.317zm0 0" fill="#fff"/><path d="M1278.348 758.139c1.39 0 2.711-.285 3.961-.91a9.257 9.257 0 0 0 3.168-2.496l-2.855-2.23c-1.082 1.32-2.496 1.964-4.274 1.964-1.582 0-2.902-.527-3.96-1.582-1.079-1.055-1.606-2.398-1.606-3.984 0-1.586.527-2.903 1.605-3.961 1.059-1.055 2.38-1.606 3.961-1.606 1.778 0 3.215.672 4.274 1.965l2.855-2.23c-.84-1.055-1.898-1.871-3.144-2.496a9.129 9.129 0 0 0-3.985-.91c-2.566 0-4.75.91-6.55 2.71-1.801 1.801-2.688 3.985-2.688 6.528 0 2.566.887 4.754 2.687 6.55 1.801 1.801 3.985 2.688 6.551 2.688zm0 0" fill="#fff"/><path d="M1294.788 745.662c-1.32 0-2.398.504-3.238 1.461v-7.222h-3.625v18h3.625v-7.176c0-.527.215-.961.62-1.32.388-.36.891-.551 1.516-.551.551 0 1.008.168 1.368.504.336.336.527.765.527 1.297v7.246h3.625v-7.68c0-1.297-.434-2.375-1.25-3.242-.84-.864-1.895-1.317-3.168-1.317zm0 0" fill="#fff"/><path d="M1314.276 751.78c-.024-1.848-.598-3.336-1.703-4.465-1.13-1.102-2.594-1.68-4.368-1.68-1.945 0-3.503.602-4.703 1.8-1.203 1.2-1.777 2.688-1.777 4.466 0 1.824.55 3.336 1.703 4.488 1.152 1.176 2.785 1.75 4.922 1.75 1.223 0 2.328-.285 3.336-.887a5.146 5.146 0 0 0 2.183-2.398l-2.93-1.2c-.527 1.055-1.437 1.583-2.71 1.583-.746 0-1.367-.215-1.895-.696-.53-.48-.84-1.129-.937-1.945h8.832zm-6.168-3.313c1.199 0 2.015.602 2.426 1.777h-4.922c.433-1.175 1.273-1.777 2.496-1.777zm0 0" fill="#fff"/><path d="M1322.893 758.139c1.368 0 2.59-.336 3.649-1.008 1.055-.672 1.824-1.629 2.328-2.879l-3.195-1.246a2.921 2.921 0 0 1-1.055 1.39c-.48.337-1.055.505-1.727.505-.914 0-1.632-.266-2.183-.817-.578-.55-.84-1.273-.84-2.183 0-.887.262-1.61.84-2.184.55-.55 1.27-.84 2.183-.84.649 0 1.223.192 1.727.528.48.335.84.816 1.055 1.39l3.195-1.27c-.504-1.226-1.273-2.183-2.328-2.855-1.059-.672-2.281-1.008-3.649-1.008-1.898 0-3.48.598-4.753 1.774-1.27 1.176-1.895 2.664-1.895 4.465 0 1.824.625 3.312 1.895 4.488 1.273 1.176 2.855 1.75 4.753 1.75zm0 0" fill="#fff"/><path d="M1343.771 757.9l-5.71-6.574 5.28-5.425h-4.367l-4.152 4.246V739.9h-3.625v18h3.625v-5.426l4.246 5.426zm0 0" fill="#fff"/><path transform="matrix(.7522 -.00594 .00592 .74998 1091.952 729.213)" fill="none" d="M0 3.002L110.134 3" stroke="#212163" stroke-width="6"/><path stroke-linecap="round" transform="matrix(.7522 -.00594 .00592 .74998 1091.952 729.213)" fill="#212163" stroke-linejoin="round" d="M111.634-6l11.998 9.002-12 9zm0 0" stroke="#212163" stroke-width="6"/><path d="M397.813 81.02h1.61v-18h-1.61zm0 0" fill="#004aad"/><path d="M408.735 68.783c-1.25 0-2.304.453-3.168 1.367v-1.13h-1.562v12h1.562v-7.894c0-.793.313-1.465.887-2.015a2.934 2.934 0 0 1 2.113-.844c.817 0 1.512.289 2.086.867.578.574.864 1.27.864 2.086v7.8h1.585v-7.87c0-1.2-.433-2.207-1.273-3.074-.863-.864-1.894-1.293-3.094-1.293zm0 0" fill="#004aad"/><path d="M422.56 69.02h-2.618V64.7h-1.582v4.32h-2.64v1.49h2.64v10.51h1.582V70.51h2.617zm0 0" fill="#004aad"/><path d="M437.007 74.876c-.07-1.726-.696-3.168-1.895-4.343-1.203-1.153-2.64-1.75-4.344-1.75-1.73 0-3.195.62-4.418 1.824-1.222 1.222-1.824 2.687-1.824 4.414 0 1.726.602 3.215 1.824 4.414 1.223 1.226 2.688 1.824 4.418 1.824 1.102 0 2.133-.262 3.07-.812a5.968 5.968 0 0 0 2.231-2.211l-1.437-.621a4.482 4.482 0 0 1-1.68 1.535c-.672.383-1.418.55-2.184.55-1.25 0-2.328-.433-3.242-1.296-.91-.864-1.367-1.918-1.414-3.192h10.871zm-6.239-4.535a4.45 4.45 0 0 1 2.828.985 4.714 4.714 0 0 1 1.633 2.449h-8.949c.262-1.012.813-1.824 1.656-2.473a4.569 4.569 0 0 1 2.832-.96zm0 0" fill="#004aad"/><path d="M445.48 68.783c-1.536 0-2.641.765-3.337 2.3v-2.062h-1.562v12h1.562v-6.719c0-1.105.313-2.043.961-2.809.645-.77 1.438-1.152 2.399-1.152.383 0 .793.094 1.222.29v-1.61a3.693 3.693 0 0 0-1.246-.238zm0 0" fill="#004aad"/><path d="M454.047 68.783c-1.25 0-2.304.453-3.168 1.367v-1.13h-1.562v12h1.562v-7.894c0-.793.313-1.465.887-2.015a2.934 2.934 0 0 1 2.113-.844c.817 0 1.512.289 2.086.867.579.574.864 1.27.864 2.086v7.8h1.586v-7.87c0-1.2-.434-2.207-1.274-3.074-.863-.864-1.894-1.293-3.094-1.293zm0 0" fill="#004aad"/><path d="M472.672 69.02v2.138c-1.152-1.586-2.762-2.375-4.851-2.375-1.653 0-3.07.62-4.27 1.847-1.2 1.223-1.8 2.688-1.8 4.39 0 1.727.6 3.192 1.8 4.415 1.2 1.226 2.617 1.824 4.27 1.824 2.09 0 3.699-.789 4.851-2.375v2.137h1.559v-12zm-4.68 10.68c-1.296 0-2.378-.457-3.289-1.367-.914-.914-1.367-2.015-1.367-3.312 0-1.297.453-2.399 1.367-3.313.91-.91 1.993-1.367 3.29-1.367 1.292 0 2.398.457 3.308 1.367.914.914 1.371 2.016 1.371 3.313 0 1.297-.457 2.398-1.371 3.312-.91.91-2.016 1.368-3.309 1.368zm0 0" fill="#004aad"/><path d="M478.693 81.02h1.563v-18h-1.563zm0 0" fill="#004aad"/><path d="M496.335 68.783c-1.535 0-2.64.765-3.335 2.3v-2.062h-1.563v12H493v-6.719c0-1.105.312-2.043.96-2.809.645-.77 1.438-1.152 2.399-1.152.383 0 .793.094 1.223.29v-1.61a3.693 3.693 0 0 0-1.247-.238zm0 0" fill="#004aad"/><path d="M500.99 65.11c.312 0 .578-.097.816-.335.242-.219.36-.48.36-.817 0-.336-.118-.601-.36-.84a1.19 1.19 0 0 0-1.656 0c-.239.239-.336.504-.336.84 0 .336.097.598.336.817.242.238.504.336.84.336zm-.79 15.91h1.559v-12H500.2zm0 0" fill="#004aad"/><path d="M509.151 81.26c1.055 0 1.942-.31 2.664-.958.72-.625 1.102-1.441 1.102-2.426 0-.504-.094-.96-.285-1.367a2.844 2.844 0 0 0-.84-1.031 7.126 7.126 0 0 0-1.008-.649 89.81 89.81 0 0 1-1.226-.578 33.37 33.37 0 0 1-1.032-.43 3.332 3.332 0 0 1-.695-.433c-.242-.168-.41-.36-.504-.574-.098-.192-.144-.457-.144-.746 0-.575.168-1.032.55-1.344.36-.313.817-.48 1.395-.48.863 0 1.512.386 1.894 1.128l1.391-.718c-.262-.528-.695-.985-1.27-1.344a4.057 4.057 0 0 0-1.992-.527c-.96 0-1.8.308-2.496.886-.719.598-1.054 1.414-1.054 2.45 0 .91.261 1.628.84 2.16.55.527 1.39 1.03 2.542 1.46.84.337 1.438.649 1.801.938.36.29.55.672.55 1.176 0 .601-.214 1.078-.624 1.441-.406.36-.961.528-1.633.528-1.223 0-2.062-.528-2.52-1.586l-1.511.48c.215.719.723 1.32 1.512 1.8a4.726 4.726 0 0 0 2.593.743zm0 0" fill="#004aad"/><path d="M525.52 81.02l-6.192-6.671 5.687-5.328h-2.136l-5.207 4.894V63.021h-1.563v18h1.563v-6.266l5.664 6.266zm0 0" fill="#004aad"/><path d="M409.157 102.02v2.138c-1.152-1.586-2.762-2.375-4.851-2.375-1.653 0-3.07.62-4.27 1.847-1.2 1.223-1.8 2.688-1.8 4.39 0 1.727.6 3.192 1.8 4.415 1.2 1.226 2.617 1.824 4.27 1.824 2.09 0 3.699-.789 4.851-2.375v2.137h1.559v-12zm-4.68 10.68c-1.296 0-2.378-.457-3.289-1.367-.914-.914-1.367-2.015-1.367-3.312 0-1.297.453-2.399 1.367-3.313.91-.91 1.993-1.367 3.29-1.367 1.292 0 2.398.457 3.308 1.367.914.914 1.371 2.016 1.371 3.313 0 1.297-.457 2.398-1.371 3.312-.91.91-2.016 1.368-3.309 1.368zm0 0" fill="#004aad"/><path d="M418.084 114.26c1.055 0 1.942-.31 2.664-.958.72-.625 1.102-1.441 1.102-2.426 0-.504-.094-.96-.285-1.367a2.844 2.844 0 0 0-.84-1.031 7.126 7.126 0 0 0-1.008-.649 89.81 89.81 0 0 1-1.227-.578 33.37 33.37 0 0 1-1.03-.43 3.332 3.332 0 0 1-.696-.433c-.242-.168-.41-.36-.504-.574-.098-.192-.145-.457-.145-.746 0-.575.168-1.032.551-1.344.36-.313.817-.48 1.395-.48.863 0 1.512.386 1.894 1.128l1.391-.718c-.262-.528-.695-.985-1.27-1.344a4.057 4.057 0 0 0-1.992-.527c-.96 0-1.8.308-2.496.886-.719.598-1.055 1.414-1.055 2.45 0 .91.262 1.628.84 2.16.551.527 1.39 1.03 2.543 1.46.84.337 1.438.649 1.801.938.36.29.55.672.55 1.176 0 .601-.214 1.078-.624 1.441-.406.36-.961.528-1.633.528-1.223 0-2.062-.528-2.52-1.586l-1.511.48c.215.719.722 1.32 1.511 1.8a4.726 4.726 0 0 0 2.594.743zm0 0" fill="#004aad"/><path d="M427.948 114.26c1.055 0 1.942-.31 2.664-.958.72-.625 1.102-1.441 1.102-2.426 0-.504-.094-.96-.285-1.367a2.844 2.844 0 0 0-.84-1.031 7.126 7.126 0 0 0-1.008-.649 89.81 89.81 0 0 1-1.226-.578 33.37 33.37 0 0 1-1.032-.43 3.332 3.332 0 0 1-.695-.433c-.242-.168-.41-.36-.504-.574-.098-.192-.144-.457-.144-.746 0-.575.167-1.032.55-1.344.36-.313.817-.48 1.395-.48.863 0 1.512.386 1.894 1.128l1.391-.718c-.262-.528-.695-.985-1.27-1.344a4.057 4.057 0 0 0-1.992-.527c-.96 0-1.8.308-2.496.886-.719.598-1.055 1.414-1.055 2.45 0 .91.262 1.628.84 2.16.551.527 1.39 1.03 2.543 1.46.84.337 1.438.649 1.801.938.36.29.55.672.55 1.176 0 .601-.214 1.078-.624 1.441-.406.36-.961.528-1.633.528-1.223 0-2.062-.528-2.52-1.586l-1.511.48c.215.719.722 1.32 1.512 1.8a4.726 4.726 0 0 0 2.593.743zm0 0" fill="#004aad"/><path d="M446.5 107.876c-.07-1.726-.696-3.168-1.895-4.343-1.203-1.153-2.64-1.75-4.344-1.75-1.73 0-3.195.62-4.417 1.824-1.223 1.222-1.825 2.687-1.825 4.414 0 1.726.602 3.215 1.825 4.414 1.222 1.226 2.687 1.824 4.417 1.824 1.102 0 2.133-.262 3.07-.812a5.968 5.968 0 0 0 2.231-2.211l-1.437-.621a4.482 4.482 0 0 1-1.68 1.535c-.672.383-1.418.55-2.184.55-1.25 0-2.328-.433-3.242-1.296-.91-.864-1.367-1.918-1.414-3.192h10.871zm-6.239-4.535a4.45 4.45 0 0 1 2.829.985 4.714 4.714 0 0 1 1.632 2.449h-8.949c.262-1.012.813-1.824 1.656-2.473a4.569 4.569 0 0 1 2.832-.96zm0 0" fill="#004aad"/><path d="M452.98 114.26c1.055 0 1.942-.31 2.664-.958.72-.625 1.102-1.441 1.102-2.426 0-.504-.094-.96-.285-1.367a2.844 2.844 0 0 0-.84-1.031 7.126 7.126 0 0 0-1.008-.649 89.81 89.81 0 0 1-1.226-.578 33.37 33.37 0 0 1-1.032-.43 3.332 3.332 0 0 1-.695-.433c-.242-.168-.41-.36-.504-.574-.098-.192-.144-.457-.144-.746 0-.575.168-1.032.55-1.344.36-.313.817-.48 1.395-.48.863 0 1.512.386 1.894 1.128l1.391-.718c-.262-.528-.695-.985-1.27-1.344a4.057 4.057 0 0 0-1.992-.527c-.96 0-1.8.308-2.496.886-.719.598-1.054 1.414-1.054 2.45 0 .91.261 1.628.84 2.16.55.527 1.39 1.03 2.542 1.46.84.337 1.438.649 1.801.938.36.29.55.672.55 1.176 0 .601-.214 1.078-.624 1.441-.406.36-.961.528-1.633.528-1.223 0-2.062-.528-2.52-1.586l-1.511.48c.215.719.722 1.32 1.512 1.8a4.726 4.726 0 0 0 2.593.743zm0 0" fill="#004aad"/><path d="M462.844 114.26c1.055 0 1.942-.31 2.664-.958.72-.625 1.102-1.441 1.102-2.426 0-.504-.094-.96-.285-1.367a2.844 2.844 0 0 0-.84-1.031 7.126 7.126 0 0 0-1.008-.649 89.81 89.81 0 0 1-1.226-.578 33.37 33.37 0 0 1-1.032-.43 3.332 3.332 0 0 1-.695-.433c-.242-.168-.41-.36-.504-.574-.098-.192-.144-.457-.144-.746 0-.575.168-1.032.55-1.344.36-.313.817-.48 1.395-.48.863 0 1.512.386 1.894 1.128l1.391-.718c-.262-.528-.695-.985-1.27-1.344a4.057 4.057 0 0 0-1.992-.527c-.96 0-1.8.308-2.496.886-.719.598-1.054 1.414-1.054 2.45 0 .91.261 1.628.84 2.16.55.527 1.39 1.03 2.542 1.46.84.337 1.438.649 1.801.938.36.29.55.672.55 1.176 0 .601-.214 1.078-.624 1.441-.406.36-.961.528-1.633.528-1.223 0-2.062-.528-2.52-1.586l-1.511.48c.215.719.723 1.32 1.512 1.8a4.726 4.726 0 0 0 2.593.743zm0 0" fill="#004aad"/><path d="M481.298 101.783c-1.512 0-2.71.644-3.574 1.918-.41-.575-.914-1.055-1.512-1.391-.625-.336-1.25-.527-1.898-.527-1.2 0-2.184.503-2.95 1.511v-1.273h-1.562v12h1.563v-7.754c0-.813.261-1.512.793-2.086.527-.55 1.199-.84 1.988-.84.77 0 1.418.29 1.969.863.527.579.816 1.25.816 2.063v7.754h1.586v-7.754c0-.813.262-1.484.816-2.063a2.587 2.587 0 0 1 1.965-.863c.77 0 1.418.29 1.969.863.527.579.816 1.25.816 2.063v7.754h1.559v-7.754c0-1.246-.43-2.3-1.27-3.168-.863-.863-1.87-1.316-3.074-1.316zm0 0" fill="#004aad"/><path d="M501.46 107.876c-.07-1.726-.695-3.168-1.895-4.343-1.203-1.153-2.64-1.75-4.343-1.75-1.73 0-3.196.62-4.418 1.824-1.223 1.222-1.825 2.687-1.825 4.414 0 1.726.602 3.215 1.825 4.414 1.222 1.226 2.687 1.824 4.418 1.824 1.101 0 2.132-.262 3.07-.812a5.968 5.968 0 0 0 2.23-2.211l-1.437-.621a4.482 4.482 0 0 1-1.68 1.535c-.672.383-1.418.55-2.183.55-1.25 0-2.329-.433-3.243-1.296-.91-.864-1.367-1.918-1.414-3.192h10.871zm-6.238-4.535a4.45 4.45 0 0 1 2.828.985 4.714 4.714 0 0 1 1.633 2.449h-8.95c.262-1.012.813-1.824 1.657-2.473a4.569 4.569 0 0 1 2.832-.96zm0 0" fill="#004aad"/><path d="M509.765 101.783c-1.25 0-2.305.453-3.168 1.367v-1.13h-1.563v12h1.563v-7.894c0-.793.312-1.465.886-2.015a2.934 2.934 0 0 1 2.114-.844c.816 0 1.511.289 2.086.867.578.574.863 1.27.863 2.086v7.8h1.586v-7.87c0-1.2-.434-2.207-1.274-3.074-.863-.864-1.894-1.293-3.093-1.293zm0 0" fill="#004aad"/><path d="M523.589 102.02h-2.618V97.7h-1.582v4.32h-2.64v1.49h2.64v10.51h1.582v-10.51h2.618zm0 0" fill="#004aad"/><path transform="matrix(.75035 .00754 -.00754 .74996 151.113 81.391)" fill="none" d="M0 3l133.426.002" stroke="#212163" stroke-width="6"/><path stroke-linecap="round" transform="matrix(.75035 .00754 -.00754 .74996 151.113 81.391)" fill="#212163" stroke-linejoin="round" d="M134.924-5.998l12.001 9-12.003 8.996zm0 0" stroke="#212163" stroke-width="6"/><path d="M46.585 182.66c1.152 0 2.328-.238 3.504-.718a9.1 9.1 0 0 0 3.023-1.992l-1.175-1.153c-1.465 1.488-3.239 2.235-5.352 2.235-2.137 0-3.938-.723-5.426-2.211-1.488-1.461-2.207-3.262-2.207-5.399 0-2.113.719-3.91 2.207-5.398 1.488-1.465 3.29-2.211 5.426-2.211 2.113 0 3.887.746 5.352 2.234l1.175-1.152a9.418 9.418 0 0 0-3.023-1.969c-1.176-.48-2.352-.742-3.504-.742-2.594 0-4.777.91-6.55 2.687-1.802 1.797-2.688 3.985-2.688 6.551 0 2.594.886 4.778 2.687 6.551 1.774 1.8 3.957 2.687 6.551 2.687zm0 0" fill="#004aad"/><path d="M60.433 182.66c1.32 0 2.399-.406 3.239-1.246.816-.816 1.25-1.922 1.25-3.265v-7.727h-1.563v7.559c0 .937-.285 1.68-.812 2.258-.555.574-1.25.863-2.114.863-.863 0-1.558-.29-2.113-.863-.55-.579-.816-1.32-.816-2.258v-7.559h-1.582v7.727c0 1.343.406 2.449 1.246 3.265.84.84 1.922 1.246 3.265 1.246zm0 0" fill="#004aad"/><path d="M71.858 182.66c1.054 0 1.941-.308 2.664-.957.718-.625 1.101-1.441 1.101-2.425 0-.504-.094-.961-.285-1.368a2.844 2.844 0 0 0-.84-1.03 7.126 7.126 0 0 0-1.008-.65 89.81 89.81 0 0 1-1.226-.577 33.37 33.37 0 0 1-1.031-.43 3.332 3.332 0 0 1-.696-.434c-.242-.168-.41-.359-.504-.574-.097-.191-.144-.457-.144-.746 0-.574.168-1.031.55-1.344.36-.312.817-.48 1.395-.48.863 0 1.512.387 1.895 1.129l1.39-.719c-.261-.527-.695-.984-1.27-1.344a4.057 4.057 0 0 0-1.991-.527c-.961 0-1.801.308-2.496.887-.72.597-1.055 1.414-1.055 2.449 0 .91.262 1.629.84 2.16.55.527 1.39 1.031 2.543 1.46.84.337 1.437.65 1.8.938.36.29.551.672.551 1.176 0 .602-.215 1.078-.625 1.442-.406.359-.96.527-1.633.527-1.222 0-2.062-.527-2.52-1.586l-1.51.48c.214.72.722 1.32 1.51 1.801a4.726 4.726 0 0 0 2.595.742zm0 0" fill="#004aad"/><path d="M84.05 170.422h-2.617v-4.32H79.85v4.32H77.21v1.488h2.64v10.512h1.583V171.91h2.617zm0 0" fill="#004aad"/><path d="M92.259 182.66c1.726 0 3.191-.597 4.414-1.824 1.2-1.199 1.824-2.687 1.824-4.414 0-1.726-.625-3.191-1.824-4.414-1.223-1.203-2.688-1.824-4.414-1.824-1.73 0-3.195.621-4.418 1.824-1.223 1.223-1.824 2.688-1.824 4.414 0 1.727.601 3.215 1.824 4.414 1.223 1.227 2.687 1.824 4.418 1.824zm0-1.558c-1.297 0-2.402-.457-3.313-1.367-.914-.914-1.343-2.016-1.343-3.313 0-1.297.43-2.398 1.343-3.312.91-.91 2.016-1.368 3.313-1.368 1.293 0 2.398.458 3.308 1.368.915.914 1.372 2.015 1.372 3.312 0 1.297-.457 2.399-1.372 3.313-.91.91-2.015 1.367-3.308 1.367zm0 0" fill="#004aad"/><path d="M113.592 170.184c-1.512 0-2.711.644-3.575 1.918-.41-.574-.914-1.055-1.511-1.39-.625-.337-1.25-.528-1.899-.528-1.2 0-2.183.504-2.95 1.512v-1.274h-1.562v12h1.563v-7.754c0-.812.262-1.511.793-2.086.527-.55 1.2-.84 1.988-.84.77 0 1.418.29 1.969.864.527.578.816 1.25.816 2.062v7.754h1.586v-7.754c0-.812.262-1.484.817-2.062a2.587 2.587 0 0 1 1.965-.864c.769 0 1.417.29 1.968.864.528.578.817 1.25.817 2.062v7.754h1.558v-7.754c0-1.246-.43-2.3-1.27-3.168-.863-.863-1.87-1.316-3.073-1.316zm0 0" fill="#004aad"/><path d="M133.753 176.278c-.07-1.727-.695-3.168-1.894-4.344-1.203-1.152-2.64-1.75-4.344-1.75-1.73 0-3.195.621-4.418 1.824-1.223 1.223-1.824 2.688-1.824 4.414 0 1.727.601 3.215 1.824 4.414 1.223 1.227 2.687 1.824 4.418 1.824 1.101 0 2.133-.261 3.07-.812a5.968 5.968 0 0 0 2.23-2.211l-1.437-.621a4.482 4.482 0 0 1-1.68 1.535c-.671.383-1.417.55-2.183.55-1.25 0-2.328-.433-3.242-1.296-.91-.863-1.367-1.918-1.414-3.191h10.87zm-6.238-4.536a4.45 4.45 0 0 1 2.828.985 4.714 4.714 0 0 1 1.633 2.45h-8.95c.262-1.013.813-1.825 1.657-2.474a4.569 4.569 0 0 1 2.832-.96zm0 0" fill="#004aad"/><path d="M142.226 170.184c-1.535 0-2.64.766-3.336 2.3v-2.062h-1.563v12h1.563v-6.719c0-1.105.312-2.043.96-2.808.645-.77 1.438-1.153 2.4-1.153.382 0 .792.094 1.222.29v-1.61a3.693 3.693 0 0 0-1.246-.238zm0 0" fill="#004aad"/><path d="M48.82 203.184c-2.016 0-3.598.766-4.75 2.254v-2.016h-1.563v18h1.562v-8.015c1.153 1.511 2.735 2.253 4.75 2.253 1.633 0 3.075-.597 4.274-1.824 1.199-1.222 1.8-2.687 1.8-4.414 0-1.703-.601-3.168-1.8-4.39-1.2-1.227-2.64-1.848-4.274-1.848zm-.169 10.918c-1.296 0-2.398-.457-3.312-1.367-.91-.914-1.367-2.016-1.367-3.313 0-1.297.457-2.398 1.367-3.312.914-.91 2.016-1.368 3.312-1.368 1.274 0 2.38.458 3.29 1.368.91.914 1.39 2.015 1.39 3.312 0 1.297-.48 2.399-1.39 3.313-.91.91-2.016 1.367-3.29 1.367zm0 0" fill="#004aad"/><path d="M63.365 203.184c-1.535 0-2.64.766-3.336 2.3v-2.062h-1.562v12h1.562v-6.719c0-1.105.313-2.043.961-2.808.645-.77 1.438-1.153 2.399-1.153.383 0 .793.094 1.222.29v-1.61a3.693 3.693 0 0 0-1.246-.238zm0 0" fill="#004aad"/><path d="M72.558 215.66c1.727 0 3.192-.597 4.414-1.824 1.2-1.199 1.825-2.687 1.825-4.414 0-1.726-.625-3.191-1.825-4.414-1.222-1.203-2.687-1.824-4.414-1.824-1.73 0-3.195.621-4.418 1.824-1.222 1.223-1.824 2.688-1.824 4.414 0 1.727.602 3.215 1.824 4.414 1.223 1.227 2.688 1.824 4.418 1.824zm0-1.558c-1.297 0-2.402-.457-3.312-1.367-.914-.914-1.344-2.016-1.344-3.313 0-1.297.43-2.398 1.344-3.312.91-.91 2.015-1.368 3.312-1.368 1.293 0 2.399.458 3.309 1.368.914.914 1.371 2.015 1.371 3.312 0 1.297-.457 2.399-1.371 3.313-.91.91-2.016 1.367-3.309 1.367zm0 0" fill="#004aad"/><path d="M89.934 203.422l-3.89 10.13-3.887-10.13h-1.68l4.8 12h1.512l4.825-12zm0 0" fill="#004aad"/><path d="M94.971 199.512c.313 0 .578-.098.817-.336.242-.219.36-.48.36-.816 0-.336-.118-.602-.36-.84a1.19 1.19 0 0 0-1.656 0c-.239.238-.336.504-.336.84 0 .336.097.597.336.816.242.238.503.336.84.336zm-.789 15.91h1.559v-12h-1.559zm0 0" fill="#004aad"/><path d="M110.164 197.422v7.992c-1.175-1.488-2.761-2.23-4.753-2.23-1.653 0-3.07.621-4.27 1.848-1.2 1.222-1.8 2.687-1.8 4.39 0 1.727.6 3.192 1.8 4.414 1.2 1.227 2.617 1.824 4.27 1.824 1.992 0 3.578-.742 4.753-2.23v1.992h1.586v-18zm-4.582 16.68c-1.296 0-2.378-.457-3.289-1.367-.914-.914-1.367-2.016-1.367-3.313 0-1.297.453-2.398 1.367-3.312.91-.91 1.993-1.368 3.29-1.368 1.292 0 2.398.458 3.308 1.368.914.914 1.371 2.015 1.371 3.312 0 1.297-.457 2.399-1.371 3.313-.91.91-2.016 1.367-3.309 1.367zm0 0" fill="#004aad"/><path d="M127.78 209.278c-.07-1.727-.695-3.168-1.894-4.344-1.203-1.152-2.64-1.75-4.344-1.75-1.73 0-3.195.621-4.417 1.824-1.223 1.223-1.825 2.688-1.825 4.414 0 1.727.602 3.215 1.825 4.414 1.222 1.227 2.687 1.824 4.417 1.824 1.102 0 2.133-.261 3.07-.812a5.968 5.968 0 0 0 2.231-2.211l-1.437-.621a4.482 4.482 0 0 1-1.68 1.535c-.672.383-1.418.55-2.184.55-1.25 0-2.328-.433-3.242-1.296-.91-.863-1.367-1.918-1.414-3.191h10.871zm-6.238-4.536a4.45 4.45 0 0 1 2.829.985 4.714 4.714 0 0 1 1.632 2.45h-8.949c.262-1.013.813-1.825 1.656-2.474a4.569 4.569 0 0 1 2.832-.96zm0 0" fill="#004aad"/><path d="M134.261 215.66c1.055 0 1.942-.308 2.664-.957.72-.625 1.102-1.441 1.102-2.425 0-.504-.094-.961-.285-1.368a2.844 2.844 0 0 0-.84-1.03 7.126 7.126 0 0 0-1.008-.65 89.81 89.81 0 0 1-1.226-.577 33.37 33.37 0 0 1-1.032-.43 3.332 3.332 0 0 1-.695-.434c-.242-.168-.41-.359-.504-.574-.098-.191-.144-.457-.144-.746 0-.574.168-1.031.55-1.344.36-.312.817-.48 1.395-.48.863 0 1.512.387 1.894 1.129l1.391-.719c-.262-.527-.695-.984-1.27-1.344a4.057 4.057 0 0 0-1.992-.527c-.96 0-1.8.308-2.496.887-.719.597-1.054 1.414-1.054 2.449 0 .91.261 1.629.84 2.16.55.527 1.39 1.031 2.542 1.46.84.337 1.438.65 1.801.938.36.29.55.672.55 1.176 0 .602-.214 1.078-.624 1.442-.406.359-.961.527-1.633.527-1.223 0-2.062-.527-2.52-1.586l-1.511.48c.215.72.722 1.32 1.512 1.801a4.726 4.726 0 0 0 2.593.742zm0 0" fill="#004aad"/><path d="M29.483 236.422h-2.617v-4.32h-1.582v4.32h-2.64v1.488h2.64v10.512h1.582V237.91h2.617zm0 0" fill="#004aad"/><path d="M37.017 236.184c-1.223 0-2.254.453-3.117 1.344v-7.106h-1.563v18H33.9v-7.894c0-.793.285-1.465.863-2.016.574-.555 1.246-.844 2.062-.844.793 0 1.489.29 2.067.867.574.575.863 1.27.863 2.086v7.801h1.559v-7.87c0-1.2-.43-2.208-1.27-3.075-.84-.863-1.848-1.293-3.027-1.293zm0 0" fill="#004aad"/><path d="M57.13 242.278c-.07-1.727-.694-3.168-1.894-4.344-1.203-1.152-2.64-1.75-4.343-1.75-1.73 0-3.196.621-4.418 1.824-1.223 1.223-1.825 2.688-1.825 4.414 0 1.727.602 3.215 1.825 4.414 1.222 1.227 2.687 1.824 4.418 1.824 1.101 0 2.132-.261 3.07-.812a5.968 5.968 0 0 0 2.23-2.211l-1.437-.621a4.482 4.482 0 0 1-1.68 1.535c-.672.383-1.418.55-2.183.55-1.25 0-2.329-.433-3.243-1.296-.91-.863-1.367-1.918-1.414-3.191h10.871zm-6.237-4.536a4.45 4.45 0 0 1 2.828.985 4.714 4.714 0 0 1 1.632 2.45h-8.949c.262-1.013.813-1.825 1.657-2.474a4.569 4.569 0 0 1 2.832-.96zm0 0" fill="#004aad"/><path d="M61.522 232.512c.312 0 .578-.098.816-.336.242-.219.36-.48.36-.816 0-.336-.118-.602-.36-.84a1.19 1.19 0 0 0-1.656 0c-.239.238-.336.504-.336.84 0 .336.097.597.336.816.242.238.504.336.84.336zm-.79 15.91h1.56v-12h-1.56zm0 0" fill="#004aad"/><path d="M71.676 236.184c-1.536 0-2.641.766-3.336 2.3v-2.062h-1.563v12h1.563v-6.719c0-1.105.312-2.043.96-2.808.645-.77 1.438-1.153 2.399-1.153.383 0 .793.094 1.223.29v-1.61a3.693 3.693 0 0 0-1.246-.238zm0 0" fill="#004aad"/><path d="M92.17 230.422v7.992c-1.175-1.488-2.761-2.23-4.753-2.23-1.653 0-3.07.621-4.27 1.848-1.199 1.222-1.8 2.687-1.8 4.39 0 1.727.601 3.192 1.8 4.414 1.2 1.227 2.617 1.824 4.27 1.824 1.992 0 3.578-.742 4.754-2.23v1.992h1.586v-18zm-4.581 16.68c-1.297 0-2.38-.457-3.29-1.367-.913-.914-1.367-2.016-1.367-3.313 0-1.297.454-2.398 1.368-3.312.91-.91 1.992-1.368 3.289-1.368 1.293 0 2.398.458 3.308 1.368.914.914 1.371 2.015 1.371 3.312 0 1.297-.457 2.399-1.37 3.313-.91.91-2.016 1.367-3.31 1.367zm0 0" fill="#004aad"/><path d="M109.787 242.278c-.07-1.727-.695-3.168-1.895-4.344-1.203-1.152-2.64-1.75-4.343-1.75-1.73 0-3.196.621-4.418 1.824-1.223 1.223-1.825 2.688-1.825 4.414 0 1.727.602 3.215 1.825 4.414 1.222 1.227 2.687 1.824 4.418 1.824 1.101 0 2.132-.261 3.07-.812a5.968 5.968 0 0 0 2.23-2.211l-1.437-.621a4.482 4.482 0 0 1-1.68 1.535c-.672.383-1.418.55-2.183.55-1.25 0-2.328-.433-3.243-1.296-.91-.863-1.367-1.918-1.414-3.191h10.872zm-6.238-4.536a4.45 4.45 0 0 1 2.828.985 4.714 4.714 0 0 1 1.633 2.45h-8.95c.262-1.013.813-1.825 1.657-2.474a4.569 4.569 0 0 1 2.832-.96zm0 0" fill="#004aad"/><path d="M118.596 236.422h-2.618v-4.32h-1.582v4.32h-2.64v1.488h2.64v10.512h1.582V237.91h2.618zm0 0" fill="#004aad"/><path d="M131.484 236.422v2.137c-1.152-1.586-2.761-2.375-4.851-2.375-1.652 0-3.07.621-4.27 1.848-1.199 1.222-1.8 2.687-1.8 4.39 0 1.727.601 3.192 1.8 4.414 1.2 1.227 2.618 1.824 4.27 1.824 2.09 0 3.7-.789 4.851-2.375v2.137h1.559v-12zm-4.68 10.68c-1.296 0-2.378-.457-3.288-1.367-.914-.914-1.368-2.016-1.368-3.313 0-1.297.454-2.398 1.368-3.312.91-.91 1.992-1.368 3.289-1.368 1.293 0 2.398.458 3.308 1.368.914.914 1.371 2.015 1.371 3.312 0 1.297-.457 2.399-1.37 3.313-.91.91-2.016 1.367-3.31 1.367zm0 0" fill="#004aad"/><path d="M138.322 232.512c.312 0 .578-.098.816-.336.242-.219.36-.48.36-.816 0-.336-.118-.602-.36-.84a1.19 1.19 0 0 0-1.656 0c-.238.238-.336.504-.336.84 0 .336.098.597.336.816.242.238.504.336.84.336zm-.79 15.91h1.56v-12h-1.56zm0 0" fill="#004aad"/><path d="M143.577 248.422h1.563v-18h-1.563zm0 0" fill="#004aad"/><path d="M152.508 248.66c1.054 0 1.941-.308 2.664-.957.718-.625 1.101-1.441 1.101-2.425 0-.504-.094-.961-.285-1.368a2.844 2.844 0 0 0-.84-1.03 7.126 7.126 0 0 0-1.008-.65 89.81 89.81 0 0 1-1.226-.577 33.37 33.37 0 0 1-1.031-.43 3.332 3.332 0 0 1-.696-.434c-.242-.168-.41-.359-.504-.574-.097-.191-.144-.457-.144-.746 0-.574.168-1.031.55-1.344.36-.312.817-.48 1.395-.48.863 0 1.512.387 1.895 1.129l1.39-.719c-.261-.527-.695-.984-1.27-1.344a4.057 4.057 0 0 0-1.991-.527c-.961 0-1.801.308-2.497.887-.718.597-1.054 1.414-1.054 2.449 0 .91.262 1.629.84 2.16.55.527 1.39 1.031 2.543 1.46.84.337 1.437.65 1.8.938.36.29.551.672.551 1.176 0 .602-.215 1.078-.625 1.442-.406.359-.96.527-1.633.527-1.222 0-2.062-.527-2.52-1.586l-1.51.48c.214.72.722 1.32 1.51 1.801a4.726 4.726 0 0 0 2.595.742zm0 0" fill="#004aad"/></svg>